<svg width="278" height="27" viewBox="0 0 278 27" fill="none" xmlns="http://www.w3.org/2000/svg">
<g clip-path="url(#clip0_614_5328)">
<path d="M51.6332 26.0552L47.2947 19.3565L38.7606 6.08969L34.8512 0.0434978L19.8809 16.7902C18.5937 18.3125 16.5913 19.313 14.3028 19.313C10.4411 19.313 7.29444 16.4422 7.29444 12.9188C7.29444 9.39551 10.3457 6.52467 14.2551 6.52467C18.1646 6.52467 21.2635 9.39551 21.2635 12.9188C21.2635 13.2668 21.2159 13.5713 21.1682 13.9193L27.0324 7.39463C24.7439 3.04485 19.8809 0 14.2075 0C6.38859 0 0 5.78521 0 12.9624C0 20.096 6.38859 26.0552 14.2075 26.0552C18.7367 26.0552 22.7892 24.0543 25.3637 20.966L33.85 11.4834L38.9037 19.3565L38.9991 19.5305H27.6998C27.6998 19.5305 27.6998 19.574 27.7475 19.6175C28.0335 20.4005 29.4162 25.6637 36.8537 26.0552H51.6332Z" fill="#0E90CF"/>
<path d="M77.5714 14.093C77.5714 15.224 77.3806 16.2679 77.0469 17.225C76.6655 18.1819 76.1411 18.9648 75.4736 19.6608C74.8062 20.3133 73.9479 20.8353 72.9944 21.2267C72.0409 21.5747 70.9444 21.7922 69.8001 21.7922C68.6559 21.7922 67.5593 21.6182 66.6058 21.2267C65.6523 20.8787 64.8418 20.3568 64.1267 19.6608C63.4592 19.0084 62.8871 18.1819 62.5056 17.225C62.1242 16.2679 61.9336 15.224 61.9336 14.093C61.9336 12.9622 62.1242 11.9182 62.5056 10.9612C62.8871 10.0043 63.4592 9.22134 64.1267 8.56884C64.8418 7.91639 65.6523 7.39442 66.6058 7.04644C67.5593 6.69845 68.6082 6.48096 69.7525 6.48096C70.8967 6.48096 71.9455 6.65495 72.8991 7.04644C73.8526 7.39442 74.6631 7.91639 75.3782 8.56884C76.0457 9.22134 76.6178 10.0478 76.9992 10.9612C77.3806 11.9182 77.5714 12.9186 77.5714 14.093ZM72.9944 14.093C72.9944 12.8317 72.7083 11.8312 72.1839 11.0917C71.6118 10.3522 70.849 10.0043 69.8001 10.0043C68.7512 10.0043 67.9884 10.3522 67.4163 11.0917C66.8442 11.8312 66.5582 12.8317 66.5582 14.093C66.5582 15.3545 66.8442 16.355 67.4163 17.0945C67.9884 17.8339 68.7512 18.2254 69.8001 18.2254C70.849 18.2254 71.6118 17.8339 72.1839 17.0945C72.7083 16.355 72.9944 15.3545 72.9944 14.093Z" fill="#0E90CF"/>
<path d="M80.2891 14.0931C80.2891 13.0492 80.4797 12.0487 80.8611 11.1353C81.2425 10.2218 81.7669 9.39533 82.4821 8.69939C83.1973 8.00343 84.0554 7.48145 85.0567 7.04647C86.0578 6.655 87.202 6.4375 88.4893 6.4375C89.3475 6.4375 90.1106 6.5245 90.8254 6.65499C91.541 6.78549 92.2082 7.00298 92.8754 7.26396L91.9221 10.5263C91.4926 10.3958 91.0164 10.2653 90.5393 10.1348C90.0147 10.0043 89.4905 9.96086 88.8707 9.96086C87.5358 9.96086 86.5346 10.3523 85.9148 11.0918C85.2473 11.8312 84.9136 12.8317 84.9136 14.0496C84.9136 15.3546 85.1997 16.355 85.8195 17.0945C86.4392 17.7905 87.4881 18.182 89.0138 18.182C89.5382 18.182 90.1582 18.1384 90.7778 18.0515C91.3975 17.9644 91.9696 17.8339 92.4942 17.6164L93.1139 20.9658C92.5893 21.1833 91.9221 21.3572 91.159 21.4877C90.3967 21.6182 89.4905 21.7052 88.5847 21.7052C87.1544 21.7052 85.8671 21.4877 84.8182 21.0962C83.7694 20.7048 82.9112 20.1828 82.2438 19.4869C81.5763 18.7909 81.0995 18.0079 80.7658 17.0945C80.432 16.181 80.2891 15.1805 80.2891 14.0931Z" fill="#0E90CF"/>
<path d="M94.6367 14.2235C94.6367 12.9186 94.8753 11.8312 95.3048 10.8307C95.7335 9.87376 96.3056 9.04731 97.0212 8.43834C97.736 7.78589 98.5467 7.30742 99.4524 6.95944C100.358 6.61145 101.311 6.48096 102.266 6.48096C104.506 6.48096 106.318 7.08993 107.605 8.35137C108.892 9.61284 109.56 11.4397 109.56 13.9191C109.56 14.1366 109.56 14.4411 109.512 14.702C109.512 15.0065 109.464 15.224 109.464 15.4415H99.2614C99.3573 16.2679 99.786 16.964 100.549 17.4424C101.311 17.9209 102.361 18.1819 103.648 18.1819C104.458 18.1819 105.269 18.0949 106.08 17.9644C106.89 17.8339 107.51 17.6599 108.034 17.4424L108.654 20.7917C108.416 20.9222 108.082 21.0092 107.7 21.1397C107.319 21.2702 106.842 21.3572 106.366 21.4442C105.889 21.5312 105.364 21.5747 104.792 21.6617C104.22 21.7052 103.648 21.7487 103.124 21.7487C101.693 21.7487 100.453 21.5747 99.4049 21.1832C98.3556 20.7917 97.4499 20.2697 96.7827 19.6173C96.1146 18.9648 95.5909 18.1384 95.2573 17.225C94.7802 16.2679 94.6367 15.2675 94.6367 14.2235ZM105.174 12.6576C105.174 12.3097 105.078 11.9617 104.983 11.6572C104.888 11.3092 104.697 11.0483 104.458 10.7873C104.22 10.5263 103.934 10.3088 103.6 10.1348C103.266 9.96082 102.789 9.87376 102.266 9.87376C101.741 9.87376 101.311 9.96081 100.978 10.0913C100.597 10.2653 100.311 10.4393 100.072 10.7003C99.8335 10.9612 99.6434 11.2657 99.4999 11.6137C99.3573 11.9617 99.2614 12.3097 99.2139 12.6576H105.174Z" fill="#0E90CF"/>
<path d="M118.714 6.48096C120.048 6.48096 121.145 6.61145 122.051 6.91594C122.956 7.17693 123.624 7.5684 124.197 8.09038C124.72 8.61237 125.102 9.22134 125.341 9.96081C125.579 10.7003 125.675 11.5267 125.675 12.3966V20.9222C125.006 21.0527 124.148 21.1832 123.004 21.3572C121.861 21.5312 120.478 21.6182 118.856 21.6182C117.808 21.6182 116.902 21.5312 116.044 21.3572C115.186 21.1832 114.47 20.9222 113.898 20.5307C113.278 20.1392 112.85 19.6608 112.515 19.0518C112.182 18.4428 112.039 17.7034 112.039 16.8335C112.039 16.007 112.229 15.2675 112.611 14.702C112.992 14.093 113.469 13.6581 114.089 13.3101C114.709 12.9622 115.423 12.7012 116.234 12.5707C117.045 12.3966 117.856 12.3532 118.761 12.3532C119.333 12.3532 119.858 12.3967 120.334 12.4402C120.764 12.4837 121.145 12.5271 121.431 12.6142V12.2227C121.431 11.5267 121.192 10.9612 120.716 10.5263C120.239 10.0913 119.428 9.87376 118.284 9.87376C117.522 9.87376 116.759 9.91729 116.044 10.0043C115.281 10.0913 114.661 10.2653 114.089 10.4393L113.517 7.13342C113.755 7.04643 114.089 7.00293 114.518 6.91594C114.9 6.82894 115.328 6.74195 115.806 6.69845C116.282 6.65495 116.759 6.56795 117.283 6.52446C117.665 6.48096 118.189 6.48096 118.714 6.48096ZM119.095 18.4864C119.524 18.4864 119.953 18.4864 120.382 18.4428C120.764 18.4428 121.097 18.3994 121.336 18.3559V15.224C121.145 15.1805 120.906 15.137 120.525 15.0935C120.144 15.0501 119.811 15.0501 119.524 15.0501C119.095 15.0501 118.714 15.0935 118.332 15.137C117.951 15.1805 117.617 15.2675 117.331 15.398C117.045 15.5285 116.806 15.7025 116.664 15.92C116.52 16.1375 116.425 16.3984 116.425 16.7464C116.425 17.3989 116.664 17.8339 117.14 18.0949C117.617 18.3559 118.237 18.4864 119.095 18.4864Z" fill="#0E90CF"/>
<path d="M129.68 7.35136C130.442 7.13388 131.444 6.95988 132.635 6.78589C133.827 6.6119 135.114 6.5249 136.449 6.5249C137.784 6.5249 138.928 6.6989 139.834 7.00338C140.74 7.30786 141.455 7.78634 141.98 8.35181C142.504 8.96079 142.886 9.65673 143.077 10.4397C143.314 11.2662 143.41 12.1361 143.41 13.1365V21.3142H138.928V13.6585C138.928 12.3536 138.738 11.3967 138.356 10.8311C137.975 10.2657 137.26 10.0047 136.211 10.0047C135.877 10.0047 135.544 10.0047 135.162 10.0482C134.781 10.0918 134.494 10.0918 134.208 10.1352V21.3142H129.727V7.35136H129.68Z" fill="#0E90CF"/>
<path d="M160.432 6.48096C161.767 6.48096 162.864 6.61145 163.769 6.91594C164.675 7.17693 165.343 7.5684 165.915 8.09038C166.439 8.61237 166.821 9.22134 167.06 9.96081C167.297 10.7003 167.393 11.5267 167.393 12.3966V20.9222C166.725 21.0527 165.867 21.1832 164.723 21.3572C163.579 21.5312 162.196 21.6182 160.575 21.6182C159.527 21.6182 158.62 21.5312 157.763 21.3572C156.905 21.1832 156.189 20.9222 155.617 20.5307C154.997 20.1392 154.568 19.6608 154.234 19.0518C153.9 18.4428 153.758 17.7034 153.758 16.8335C153.758 16.007 153.948 15.2675 154.33 14.702C154.711 14.093 155.188 13.6581 155.808 13.3101C156.428 12.9622 157.142 12.7012 157.953 12.5707C158.764 12.3966 159.574 12.3532 160.48 12.3532C161.052 12.3532 161.577 12.3967 162.053 12.4402C162.483 12.4837 162.864 12.5271 163.15 12.6142V12.2227C163.15 11.5267 162.911 10.9612 162.435 10.5263C161.958 10.0913 161.147 9.87376 160.003 9.87376C159.241 9.87376 158.478 9.91729 157.763 10.0043C157 10.0913 156.38 10.2653 155.808 10.4393L155.236 7.13342C155.474 7.04643 155.808 7.00293 156.236 6.91594C156.619 6.82894 157.047 6.74195 157.524 6.69845C158 6.65495 158.478 6.56795 159.002 6.52446C159.383 6.48096 159.908 6.48096 160.432 6.48096ZM160.814 18.4864C161.243 18.4864 161.672 18.4864 162.1 18.4428C162.483 18.4428 162.816 18.3994 163.055 18.3559V15.224C162.864 15.1805 162.625 15.137 162.244 15.0935C161.863 15.0501 161.528 15.0501 161.243 15.0501C160.814 15.0501 160.433 15.0935 160.05 15.137C159.669 15.1805 159.336 15.2675 159.05 15.398C158.764 15.5285 158.525 15.7025 158.382 15.92C158.239 16.1375 158.144 16.3984 158.144 16.7464C158.144 17.3989 158.382 17.8339 158.859 18.0949C159.336 18.3559 159.955 18.4864 160.814 18.4864Z" fill="#0E90CF"/>
<path d="M170.68 14.0931C170.68 13.0492 170.871 12.0487 171.252 11.1353C171.633 10.2218 172.158 9.39533 172.873 8.69939C173.588 8.00343 174.446 7.48145 175.448 7.04647C176.449 6.655 177.593 6.4375 178.88 6.4375C179.738 6.4375 180.501 6.5245 181.216 6.65499C181.932 6.78549 182.599 7.00298 183.266 7.26396L182.313 10.5263C181.884 10.3958 181.407 10.2653 180.93 10.1348C180.406 10.0043 179.881 9.96086 179.262 9.96086C177.927 9.96086 176.926 10.3523 176.306 11.0918C175.638 11.8312 175.304 12.8317 175.304 14.0496C175.304 15.3546 175.59 16.355 176.21 17.0945C176.83 17.7905 177.879 18.182 179.404 18.182C179.929 18.182 180.549 18.1384 181.168 18.0515C181.788 17.9644 182.36 17.8339 182.885 17.6164L183.504 20.9658C182.98 21.1833 182.313 21.3572 181.55 21.4877C180.787 21.6182 179.881 21.7052 178.976 21.7052C177.545 21.7052 176.258 21.4877 175.209 21.0962C174.16 20.7048 173.302 20.1828 172.635 19.4869C171.967 18.7909 171.49 18.0079 171.157 17.0945C170.823 16.181 170.68 15.1805 170.68 14.0931Z" fill="#0E90CF"/>
<path d="M191.468 6.48096C192.803 6.48096 193.899 6.61145 194.805 6.91594C195.711 7.22042 196.378 7.5684 196.951 8.09038C197.475 8.61237 197.856 9.22134 198.095 9.96081C198.333 10.7003 198.428 11.5267 198.428 12.3966V20.9222C197.761 21.0527 196.903 21.1832 195.759 21.3572C194.614 21.5312 193.232 21.6182 191.611 21.6182C190.562 21.6182 189.656 21.5312 188.798 21.3572C187.94 21.1832 187.225 20.9222 186.653 20.5307C186.081 20.1392 185.604 19.6608 185.27 19.0518C184.936 18.4428 184.793 17.7034 184.793 16.8335C184.793 16.007 184.984 15.2675 185.365 14.702C185.746 14.093 186.223 13.6581 186.843 13.3101C187.463 12.9622 188.178 12.7012 188.989 12.5707C189.799 12.3966 190.609 12.3532 191.515 12.3532C192.087 12.3532 192.612 12.3967 193.089 12.4402C193.565 12.4837 193.899 12.5271 194.185 12.6142V12.2227C194.185 11.5267 193.947 10.9612 193.47 10.5263C192.993 10.0913 192.183 9.87376 191.039 9.87376C190.276 9.87376 189.513 9.91729 188.798 10.0043C188.035 10.0913 187.415 10.2653 186.843 10.4393L186.271 7.13342C186.509 7.04643 186.843 7.00293 187.273 6.91594C187.654 6.82894 188.082 6.74195 188.559 6.69845C189.037 6.65495 189.513 6.56795 190.037 6.52446C190.419 6.48096 190.943 6.48096 191.468 6.48096ZM191.849 18.4864C192.278 18.4864 192.707 18.4864 193.137 18.4428C193.518 18.4428 193.851 18.3994 194.09 18.3559V15.224C193.899 15.1805 193.613 15.137 193.279 15.0935C192.898 15.0501 192.564 15.0501 192.278 15.0501C191.849 15.0501 191.468 15.0935 191.087 15.137C190.705 15.1805 190.371 15.2675 190.085 15.398C189.799 15.5285 189.561 15.7025 189.418 15.92C189.275 16.1375 189.179 16.3984 189.179 16.7464C189.179 17.3989 189.418 17.8339 189.895 18.0949C190.371 18.3559 190.991 18.4864 191.849 18.4864Z" fill="#0E90CF"/>
<path d="M216.452 20.8789C216.07 21.0094 215.593 21.0964 215.069 21.1835C214.544 21.2704 214.02 21.3574 213.4 21.4445C212.78 21.5314 212.256 21.5749 211.636 21.6184C211.064 21.6619 210.492 21.7054 209.919 21.7054C208.633 21.7054 207.441 21.5314 206.439 21.1835C205.391 20.8355 204.533 20.3135 203.864 19.661C203.15 19.0086 202.625 18.2256 202.244 17.3122C201.863 16.3987 201.672 15.3547 201.672 14.1803C201.672 13.0058 201.814 11.9619 202.148 11.005C202.483 10.048 202.911 9.26501 203.531 8.61259C204.151 7.9601 204.866 7.43813 205.772 7.09014C206.63 6.74216 207.631 6.56818 208.775 6.56818C209.395 6.56818 209.967 6.61167 210.444 6.74216C210.921 6.87265 211.445 7.00315 211.922 7.22064V0.652467L216.404 0V20.8789H216.452ZM206.297 14.0063C206.297 15.2678 206.63 16.3117 207.25 17.0512C207.869 17.8341 208.823 18.2256 210.015 18.2256C210.397 18.2256 210.778 18.2256 211.111 18.1821C211.445 18.1386 211.731 18.1386 211.97 18.0951V10.6135C211.683 10.4395 211.302 10.309 210.874 10.1785C210.397 10.048 209.967 10.0045 209.491 10.0045C207.345 10.048 206.297 11.3529 206.297 14.0063Z" fill="#0E90CF"/>
<path d="M219.93 14.2235C219.93 12.9186 220.167 11.8312 220.597 10.8307C221.026 9.87376 221.598 9.04731 222.313 8.43834C223.028 7.78589 223.839 7.30742 224.744 6.95944C225.65 6.61145 226.604 6.48096 227.558 6.48096C229.799 6.48096 231.61 7.08993 232.897 8.35137C234.185 9.61284 234.852 11.4397 234.852 13.9191C234.852 14.1366 234.852 14.4411 234.805 14.702C234.805 15.0065 234.757 15.224 234.757 15.4415H224.554C224.649 16.2679 225.078 16.964 225.841 17.4424C226.604 17.9209 227.653 18.1819 228.94 18.1819C229.75 18.1819 230.561 18.0949 231.372 17.9644C232.182 17.8339 232.802 17.6599 233.327 17.4424L233.946 20.7917C233.708 20.9222 233.374 21.0092 232.993 21.1397C232.611 21.2702 232.135 21.3572 231.658 21.4442C231.181 21.5312 230.656 21.5747 230.085 21.6617C229.513 21.7052 228.94 21.7487 228.416 21.7487C226.986 21.7487 225.746 21.5747 224.697 21.1832C223.648 20.7917 222.742 20.2697 222.075 19.6173C221.408 18.9648 220.883 18.1384 220.549 17.225C220.216 16.3115 219.93 15.2675 219.93 14.2235ZM230.513 12.6576C230.513 12.3097 230.418 11.9617 230.322 11.6572C230.227 11.3092 230.036 11.0483 229.799 10.7873C229.56 10.5263 229.274 10.3088 228.94 10.1348C228.606 9.96082 228.13 9.87376 227.605 9.87376C227.081 9.87376 226.652 9.96081 226.318 10.0913C225.936 10.2653 225.65 10.4393 225.412 10.7003C225.174 10.9612 224.983 11.2657 224.84 11.6137C224.697 11.9617 224.602 12.3097 224.554 12.6576H230.513Z" fill="#0E90CF"/>
<path d="M247.056 13.6585C247.056 12.3536 246.866 11.3967 246.484 10.8311C246.103 10.2657 245.483 10.0047 244.577 10.0047C244.291 10.0047 244.005 10.0047 243.719 10.0482C243.433 10.0918 243.147 10.0918 242.861 10.1352V21.3142H238.379V7.35136C238.761 7.26437 239.19 7.17737 239.714 7.04688C240.239 6.95988 240.763 6.87289 241.336 6.78589C241.908 6.6989 242.48 6.65539 243.1 6.6119C243.719 6.56841 244.291 6.5249 244.863 6.5249C246.008 6.5249 246.961 6.65539 247.676 6.91639C248.391 7.17737 248.964 7.48186 249.44 7.87334C250.108 7.43836 250.823 7.13388 251.681 6.87288C252.539 6.65539 253.302 6.5249 253.969 6.5249C255.256 6.5249 256.258 6.6989 257.116 7.00338C257.927 7.30786 258.594 7.78634 259.071 8.35181C259.547 8.96079 259.881 9.65673 260.072 10.4397C260.263 11.2226 260.358 12.1361 260.358 13.1365V21.3142H255.877V13.6585C255.877 12.3536 255.686 11.3967 255.305 10.8311C254.923 10.2657 254.303 10.0047 253.397 10.0047C253.159 10.0047 252.825 10.0482 252.396 10.1787C251.967 10.3092 251.586 10.4397 251.347 10.6137C251.491 11.0487 251.586 11.4836 251.633 11.9621C251.681 12.4406 251.681 12.9191 251.681 13.4846V21.4012H247.2V13.6585H247.056Z" fill="#0E90CF"/>
<path d="M277.999 6.8726C277.093 9.65644 276.139 12.2664 275.138 14.7022C274.137 17.1381 273.088 19.5304 271.896 21.7924C271.467 22.6188 271.038 23.3148 270.609 23.8802C270.18 24.4457 269.703 24.9242 269.226 25.3157C268.702 25.7071 268.129 25.9681 267.51 26.1422C266.89 26.3161 266.127 26.4032 265.269 26.4032C264.554 26.4032 263.934 26.3596 263.315 26.2291C262.743 26.0986 262.218 25.9681 261.836 25.8376L262.599 22.5753C263.076 22.7058 263.457 22.8363 263.838 22.8798C264.22 22.9233 264.602 22.9668 264.983 22.9668C265.793 22.9668 266.413 22.7493 266.843 22.3578C267.271 21.9663 267.652 21.4009 267.939 20.7049C266.89 18.878 265.888 16.7901 264.84 14.5282C263.791 12.2228 262.838 9.65644 261.932 6.8291H266.699C266.89 7.52506 267.129 8.308 267.415 9.17797C267.701 10.0044 267.987 10.8744 268.273 11.7008C268.559 12.5708 268.893 13.3973 269.179 14.1803C269.512 15.0067 269.798 15.7026 270.084 16.3986C270.323 15.7462 270.609 15.0067 270.895 14.1803C271.181 13.3538 271.467 12.5273 271.705 11.7008C271.991 10.8309 272.23 10.0044 272.516 9.17797C272.754 8.35153 272.993 7.56856 273.184 6.8291H277.999V6.8726Z" fill="#0E90CF"/>
</g>
<defs>
<clipPath id="clip0_614_5328">
<rect width="278" height="27" fill="white"/>
</clipPath>
</defs>
</svg>
