<svg width="278" height="28" viewBox="0 0 278 28" fill="none" xmlns="http://www.w3.org/2000/svg">
<g clip-path="url(#clip0_737_45)">
<path d="M51.6332 26.5552L47.2947 19.8565L38.7606 6.58969L34.8512 0.543498L19.8809 17.2902C18.5937 18.8125 16.5913 19.813 14.3028 19.813C10.4411 19.813 7.29444 16.9422 7.29444 13.4188C7.29444 9.89551 10.3457 7.02467 14.2551 7.02467C18.1646 7.02467 21.2635 9.89551 21.2635 13.4188C21.2635 13.7668 21.2159 14.0713 21.1682 14.4193L27.0324 7.89463C24.7439 3.54485 19.8809 0.5 14.2075 0.5C6.38859 0.5 0 6.28521 0 13.4624C0 20.596 6.38859 26.5552 14.2075 26.5552C18.7367 26.5552 22.7892 24.5543 25.3637 21.466L33.85 11.9834L38.9037 19.8565L38.9991 20.0305H27.6998C27.6998 20.0305 27.6998 20.074 27.7475 20.1175C28.0335 20.9005 29.4162 26.1637 36.8537 26.5552H51.6332Z" fill="#0E90CF"/>
<path d="M77.5694 14.5933C77.5694 15.7243 77.3787 16.7682 77.045 17.7252C76.6636 18.6821 76.1391 19.4651 75.4717 20.161C74.8042 20.8135 73.946 21.3355 72.9925 21.7269C72.0389 22.075 70.9424 22.2925 69.7981 22.2925C68.654 22.2925 67.5574 22.1184 66.6038 21.7269C65.6504 21.379 64.8399 20.857 64.1247 20.161C63.4572 19.5086 62.8852 18.6821 62.5037 17.7252C62.1223 16.7682 61.9316 15.7243 61.9316 14.5933C61.9316 13.4624 62.1223 12.4184 62.5037 11.4615C62.8852 10.5045 63.4572 9.72159 64.1247 9.06909C64.8399 8.41664 65.6504 7.89466 66.6038 7.54668C67.5574 7.19869 68.6062 6.9812 69.7505 6.9812C70.8947 6.9812 71.9436 7.1552 72.8971 7.54668C73.8507 7.89466 74.6612 8.41664 75.3763 9.06909C76.0437 9.72159 76.6159 10.548 76.9973 11.4615C77.3787 12.4184 77.5694 13.4189 77.5694 14.5933ZM72.9925 14.5933C72.9925 13.3319 72.7064 12.3314 72.1819 11.5919C71.6099 10.8525 70.847 10.5045 69.7981 10.5045C68.7493 10.5045 67.9865 10.8525 67.4143 11.5919C66.8423 12.3314 66.5562 13.3319 66.5562 14.5933C66.5562 15.8548 66.8423 16.8552 67.4143 17.5947C67.9865 18.3341 68.7493 18.7256 69.7981 18.7256C70.847 18.7256 71.6099 18.3341 72.1819 17.5947C72.7064 16.8552 72.9925 15.8548 72.9925 14.5933Z" fill="#0E90CF"/>
<path d="M80.2871 14.5933C80.2871 13.5494 80.4778 12.5489 80.8592 11.6355C81.2406 10.722 81.765 9.89552 82.4802 9.19957C83.1954 8.50361 84.0535 7.98163 85.0547 7.54666C86.0559 7.15518 87.2001 6.93768 88.4874 6.93768C89.3455 6.93768 90.1087 7.02468 90.8234 7.15517C91.539 7.28567 92.2062 7.50316 92.8734 7.76415L91.9202 11.0265C91.4906 10.896 91.0144 10.7655 90.5373 10.635C90.0127 10.5045 89.4885 10.461 88.8688 10.461C87.5338 10.461 86.5326 10.8525 85.9128 11.5919C85.2454 12.3314 84.9117 13.3319 84.9117 14.5498C84.9117 15.8547 85.1978 16.8552 85.8175 17.5947C86.4373 18.2906 87.4861 18.6821 89.0118 18.6821C89.5363 18.6821 90.1562 18.6386 90.7759 18.5516C91.3955 18.4646 91.9677 18.3341 92.4923 18.1166L93.112 21.466C92.5874 21.6835 91.9202 21.8574 91.157 21.9879C90.3947 22.1184 89.4886 22.2054 88.5827 22.2054C87.1525 22.2054 85.8651 21.9879 84.8163 21.5964C83.7674 21.205 82.9093 20.683 82.2418 19.9871C81.5743 19.2911 81.0975 18.5081 80.7638 17.5947C80.4301 16.6812 80.2871 15.6807 80.2871 14.5933Z" fill="#0E90CF"/>
<path d="M94.6377 14.7238C94.6377 13.4189 94.8762 12.3314 95.3058 11.3309C95.7345 10.374 96.3066 9.54756 97.0222 8.93859C97.737 8.28614 98.5476 7.80766 99.4534 7.45968C100.359 7.11169 101.312 6.9812 102.267 6.9812C104.507 6.9812 106.319 7.59017 107.606 8.85161C108.893 10.1131 109.561 11.9399 109.561 14.4193C109.561 14.6368 109.561 14.9413 109.513 15.2023C109.513 15.5068 109.465 15.7243 109.465 15.9417H99.2624C99.3583 16.7682 99.787 17.4642 100.55 17.9427C101.312 18.4212 102.362 18.6822 103.648 18.6822C104.459 18.6822 105.27 18.5951 106.081 18.4646C106.891 18.3342 107.511 18.1602 108.035 17.9427L108.655 21.292C108.417 21.4225 108.083 21.5095 107.701 21.64C107.32 21.7705 106.843 21.8574 106.367 21.9445C105.89 22.0315 105.365 22.075 104.793 22.162C104.221 22.2054 103.648 22.2489 103.125 22.2489C101.694 22.2489 100.454 22.075 99.4058 21.6835C98.3566 21.292 97.4509 20.77 96.7837 20.1176C96.1156 19.4651 95.5919 18.6386 95.2583 17.7252C94.7812 16.7682 94.6377 15.7678 94.6377 14.7238ZM105.175 13.1579C105.175 12.8099 105.079 12.4619 104.984 12.1575C104.889 11.8094 104.698 11.5485 104.459 11.2875C104.221 11.0265 103.935 10.809 103.601 10.635C103.267 10.4611 102.79 10.374 102.267 10.374C101.742 10.374 101.312 10.4611 100.979 10.5916C100.598 10.7655 100.312 10.9395 100.073 11.2005C99.8345 11.4614 99.6444 11.766 99.5009 12.114C99.3583 12.4619 99.2624 12.8099 99.2148 13.1579H105.175Z" fill="#0E90CF"/>
<path d="M118.714 6.9812C120.049 6.9812 121.145 7.11169 122.051 7.41618C122.957 7.67717 123.625 8.06865 124.197 8.59062C124.721 9.11261 125.103 9.72159 125.341 10.4611C125.579 11.2005 125.675 12.027 125.675 12.8969V21.4225C125.007 21.553 124.149 21.6835 123.004 21.8574C121.861 22.0315 120.478 22.1184 118.857 22.1184C117.808 22.1184 116.903 22.0315 116.045 21.8574C115.186 21.6835 114.471 21.4225 113.899 21.031C113.279 20.6395 112.85 20.161 112.516 19.552C112.182 18.9431 112.04 18.2037 112.04 17.3337C112.04 16.5073 112.23 15.7678 112.612 15.2023C112.993 14.5933 113.47 14.1583 114.09 13.8104C114.709 13.4624 115.424 13.2014 116.235 13.0709C117.045 12.8969 117.856 12.8534 118.762 12.8534C119.334 12.8534 119.859 12.8969 120.335 12.9404C120.764 12.9839 121.145 13.0274 121.431 13.1144V12.7229C121.431 12.027 121.193 11.4615 120.717 11.0265C120.24 10.5916 119.429 10.374 118.285 10.374C117.522 10.374 116.759 10.4175 116.045 10.5045C115.281 10.5916 114.662 10.7655 114.09 10.9395L113.517 7.63367C113.756 7.54667 114.09 7.50318 114.518 7.41618C114.9 7.32918 115.329 7.24219 115.806 7.19869C116.282 7.1552 116.759 7.0682 117.284 7.0247C117.665 6.9812 118.19 6.9812 118.714 6.9812ZM119.095 18.9866C119.525 18.9866 119.954 18.9866 120.382 18.9431C120.764 18.9431 121.098 18.8996 121.336 18.8561V15.7243C121.145 15.6807 120.907 15.6373 120.526 15.5938C120.145 15.5503 119.811 15.5503 119.525 15.5503C119.095 15.5503 118.714 15.5938 118.332 15.6373C117.951 15.6807 117.617 15.7678 117.331 15.8983C117.045 16.0288 116.807 16.2027 116.664 16.4202C116.521 16.6378 116.426 16.8987 116.426 17.2466C116.426 17.8991 116.664 18.3342 117.14 18.5951C117.617 18.8561 118.237 18.9866 119.095 18.9866Z" fill="#0E90CF"/>
<path d="M129.68 7.85112C130.442 7.63363 131.444 7.45964 132.635 7.28565C133.827 7.11166 135.114 7.02466 136.449 7.02466C137.784 7.02466 138.928 7.19865 139.834 7.50314C140.74 7.80762 141.455 8.2861 141.98 8.85157C142.504 9.46054 142.886 10.1565 143.077 10.9395C143.314 11.7659 143.41 12.6359 143.41 13.6363V21.8139H138.928V14.1583C138.928 12.8534 138.738 11.8964 138.356 11.3309C137.975 10.7655 137.26 10.5045 136.211 10.5045C135.877 10.5045 135.544 10.5045 135.162 10.548C134.781 10.5915 134.494 10.5915 134.208 10.635V21.8139H129.727V7.85112H129.68Z" fill="#0E90CF"/>
<path d="M160.431 6.9812C161.765 6.9812 162.862 7.11169 163.768 7.41618C164.674 7.67717 165.342 8.06865 165.914 8.59062C166.438 9.11261 166.82 9.72159 167.058 10.4611C167.296 11.2005 167.392 12.027 167.392 12.8969V21.4225C166.724 21.553 165.865 21.6835 164.721 21.8574C163.578 22.0315 162.195 22.1184 160.574 22.1184C159.525 22.1184 158.619 22.0315 157.761 21.8574C156.903 21.6835 156.188 21.4225 155.615 21.031C154.996 20.6395 154.567 20.161 154.233 19.552C153.899 18.9431 153.756 18.2037 153.756 17.3337C153.756 16.5073 153.946 15.7678 154.328 15.2023C154.71 14.5933 155.187 14.1583 155.806 13.8104C156.426 13.4624 157.141 13.2014 157.951 13.0709C158.762 12.8969 159.573 12.8534 160.479 12.8534C161.051 12.8534 161.575 12.8969 162.052 12.9404C162.481 12.9839 162.862 13.0274 163.148 13.1144V12.7229C163.148 12.027 162.91 11.4615 162.434 11.0265C161.956 10.5916 161.146 10.374 160.001 10.374C159.239 10.374 158.476 10.4175 157.761 10.5045C156.998 10.5916 156.379 10.7655 155.806 10.9395L155.234 7.63367C155.473 7.54667 155.806 7.50318 156.235 7.41618C156.617 7.32918 157.046 7.24219 157.523 7.19869C157.999 7.1552 158.476 7.0682 159.001 7.0247C159.382 6.9812 159.906 6.9812 160.431 6.9812ZM160.812 18.9866C161.242 18.9866 161.67 18.9866 162.099 18.9431C162.481 18.9431 162.815 18.8996 163.053 18.8561V15.7243C162.862 15.6807 162.624 15.6373 162.243 15.5938C161.861 15.5503 161.527 15.5503 161.242 15.5503C160.812 15.5503 160.431 15.5938 160.049 15.6373C159.668 15.6807 159.334 15.7678 159.048 15.8983C158.762 16.0288 158.524 16.2027 158.381 16.4202C158.238 16.6378 158.142 16.8987 158.142 17.2466C158.142 17.8991 158.381 18.3342 158.857 18.5951C159.334 18.8561 159.954 18.9866 160.812 18.9866Z" fill="#0E90CF"/>
<path d="M170.68 14.5933C170.68 13.5494 170.871 12.5489 171.252 11.6355C171.633 10.722 172.158 9.89552 172.874 9.19957C173.588 8.50361 174.447 7.98163 175.448 7.54666C176.449 7.15518 177.593 6.93768 178.88 6.93768C179.738 6.93768 180.502 7.02468 181.216 7.15517C181.932 7.28567 182.599 7.50316 183.266 7.76415L182.313 11.0265C181.884 10.896 181.407 10.7655 180.93 10.635C180.407 10.5045 179.882 10.461 179.262 10.461C177.927 10.461 176.926 10.8525 176.307 11.5919C175.638 12.3314 175.305 13.3319 175.305 14.5498C175.305 15.8547 175.591 16.8552 176.211 17.5947C176.83 18.2906 177.879 18.6821 179.405 18.6821C179.93 18.6821 180.549 18.6386 181.169 18.5516C181.789 18.4646 182.361 18.3341 182.885 18.1166L183.505 21.466C182.98 21.6835 182.313 21.8574 181.551 21.9879C180.788 22.1184 179.882 22.2054 178.976 22.2054C177.546 22.2054 176.258 21.9879 175.21 21.5964C174.161 21.205 173.302 20.683 172.635 19.9871C171.968 19.2911 171.491 18.5081 171.157 17.5947C170.824 16.6812 170.68 15.6807 170.68 14.5933Z" fill="#0E90CF"/>
<path d="M191.468 6.9812C192.803 6.9812 193.899 7.11169 194.805 7.41618C195.711 7.72067 196.378 8.06865 196.951 8.59062C197.475 9.11261 197.856 9.72159 198.095 10.4611C198.333 11.2005 198.428 12.027 198.428 12.8969V21.4225C197.761 21.553 196.903 21.6835 195.759 21.8574C194.614 22.0315 193.232 22.1184 191.611 22.1184C190.562 22.1184 189.656 22.0315 188.798 21.8574C187.94 21.6835 187.225 21.4225 186.653 21.031C186.081 20.6395 185.604 20.161 185.27 19.552C184.936 18.9431 184.793 18.2037 184.793 17.3337C184.793 16.5073 184.984 15.7678 185.365 15.2023C185.746 14.5933 186.223 14.1583 186.843 13.8104C187.463 13.4624 188.178 13.2014 188.989 13.0709C189.799 12.8969 190.609 12.8534 191.515 12.8534C192.087 12.8534 192.612 12.8969 193.089 12.9404C193.565 12.9839 193.899 13.0274 194.185 13.1144V12.7229C194.185 12.027 193.947 11.4615 193.47 11.0265C192.993 10.5916 192.183 10.374 191.039 10.374C190.276 10.374 189.513 10.4175 188.798 10.5045C188.035 10.5916 187.415 10.7655 186.843 10.9395L186.271 7.63367C186.509 7.54667 186.843 7.50318 187.273 7.41618C187.654 7.32918 188.082 7.24219 188.559 7.19869C189.037 7.1552 189.513 7.0682 190.037 7.0247C190.419 6.9812 190.943 6.9812 191.468 6.9812ZM191.849 18.9866C192.278 18.9866 192.707 18.9866 193.137 18.9431C193.518 18.9431 193.851 18.8996 194.09 18.8561V15.7243C193.899 15.6807 193.613 15.6373 193.279 15.5938C192.898 15.5503 192.564 15.5503 192.278 15.5503C191.849 15.5503 191.468 15.5938 191.087 15.6373C190.705 15.6807 190.371 15.7678 190.085 15.8983C189.799 16.0288 189.561 16.2027 189.418 16.4202C189.275 16.6378 189.179 16.8987 189.179 17.2466C189.179 17.8991 189.418 18.3342 189.895 18.5951C190.371 18.8561 190.991 18.9866 191.849 18.9866Z" fill="#0E90CF"/>
<path d="M216.45 21.3789C216.068 21.5094 215.591 21.5964 215.067 21.6835C214.542 21.7704 214.018 21.8574 213.398 21.9445C212.778 22.0314 212.254 22.0749 211.634 22.1184C211.062 22.1619 210.49 22.2054 209.918 22.2054C208.631 22.2054 207.439 22.0314 206.437 21.6835C205.389 21.3355 204.531 20.8135 203.863 20.161C203.148 19.5086 202.623 18.7256 202.242 17.8122C201.861 16.8987 201.67 15.8547 201.67 14.6803C201.67 13.5058 201.813 12.4619 202.146 11.505C202.481 10.548 202.909 9.76501 203.529 9.11259C204.149 8.4601 204.864 7.93813 205.77 7.59014C206.628 7.24216 207.629 7.06818 208.773 7.06818C209.393 7.06818 209.965 7.11167 210.442 7.24216C210.919 7.37265 211.443 7.50315 211.92 7.72064V1.15247L216.402 0.5V21.3789H216.45ZM206.295 14.5063C206.295 15.7678 206.628 16.8117 207.248 17.5512C207.868 18.3341 208.821 18.7256 210.014 18.7256C210.395 18.7256 210.776 18.7256 211.109 18.6821C211.443 18.6386 211.729 18.6386 211.968 18.5951V11.1135C211.682 10.9395 211.3 10.809 210.872 10.6785C210.395 10.548 209.965 10.5045 209.489 10.5045C207.343 10.548 206.295 11.8529 206.295 14.5063Z" fill="#0E90CF"/>
<path d="M219.931 14.7238C219.931 13.4189 220.169 12.3314 220.598 11.3309C221.027 10.374 221.599 9.54756 222.315 8.93859C223.03 8.28614 223.84 7.80766 224.746 7.45968C225.652 7.11169 226.606 6.9812 227.559 6.9812C229.8 6.9812 231.612 7.59017 232.899 8.85161C234.186 10.1131 234.853 11.9399 234.853 14.4193C234.853 14.6368 234.853 14.9413 234.806 15.2023C234.806 15.5068 234.758 15.7243 234.758 15.9417H224.556C224.651 16.7682 225.08 17.4642 225.843 17.9427C226.606 18.4212 227.654 18.6822 228.942 18.6822C229.752 18.6822 230.562 18.5951 231.373 18.4646C232.184 18.3342 232.803 18.1602 233.328 17.9427L233.948 21.292C233.709 21.4225 233.376 21.5095 232.994 21.64C232.612 21.7705 232.136 21.8574 231.659 21.9445C231.182 22.0315 230.657 22.075 230.086 22.162C229.514 22.2054 228.942 22.2489 228.417 22.2489C226.987 22.2489 225.748 22.075 224.698 21.6835C223.649 21.292 222.743 20.77 222.076 20.1176C221.409 19.4651 220.884 18.6386 220.551 17.7252C220.217 16.8117 219.931 15.7678 219.931 14.7238ZM230.515 13.1579C230.515 12.8099 230.42 12.4619 230.324 12.1575C230.229 11.8094 230.038 11.5485 229.8 11.2875C229.562 11.0265 229.276 10.809 228.942 10.635C228.607 10.4611 228.131 10.374 227.607 10.374C227.082 10.374 226.653 10.4611 226.32 10.5916C225.938 10.7655 225.652 10.9395 225.413 11.2005C225.175 11.4614 224.984 11.766 224.842 12.114C224.698 12.4619 224.603 12.8099 224.556 13.1579H230.515Z" fill="#0E90CF"/>
<path d="M247.058 14.1583C247.058 12.8534 246.867 11.8964 246.485 11.3309C246.104 10.7655 245.485 10.5045 244.579 10.5045C244.293 10.5045 244.007 10.5045 243.721 10.548C243.435 10.5915 243.149 10.5915 242.862 10.635V21.8139H238.38V7.85112C238.762 7.76412 239.191 7.67713 239.716 7.54663C240.24 7.45964 240.765 7.37265 241.337 7.28565C241.909 7.19865 242.481 7.15515 243.101 7.11166C243.721 7.06816 244.293 7.02466 244.865 7.02466C246.009 7.02466 246.963 7.15515 247.677 7.41614C248.393 7.67713 248.965 7.98161 249.441 8.3731C250.109 7.93812 250.824 7.63363 251.682 7.37264C252.54 7.15515 253.304 7.02466 253.971 7.02466C255.258 7.02466 256.259 7.19865 257.118 7.50314C257.928 7.80762 258.595 8.2861 259.073 8.85157C259.549 9.46054 259.882 10.1565 260.073 10.9395C260.264 11.7224 260.359 12.6359 260.359 13.6363V21.8139H255.878V14.1583C255.878 12.8534 255.687 11.8964 255.306 11.3309C254.924 10.7655 254.304 10.5045 253.399 10.5045C253.16 10.5045 252.826 10.548 252.398 10.6785C251.968 10.809 251.587 10.9395 251.349 11.1134C251.492 11.5485 251.587 11.9834 251.635 12.4619C251.682 12.9404 251.682 13.4188 251.682 13.9844V21.9009H247.201V14.1583H247.058Z" fill="#0E90CF"/>
<path d="M278 7.37266C277.094 10.1565 276.141 12.7664 275.139 15.2022C274.138 17.6381 273.089 20.0305 271.897 22.2924C271.469 23.1189 271.039 23.8148 270.611 24.3803C270.181 24.9458 269.705 25.4243 269.228 25.8158C268.703 26.2072 268.131 26.4682 267.511 26.6422C266.892 26.8162 266.128 26.9032 265.27 26.9032C264.556 26.9032 263.936 26.8597 263.316 26.7292C262.744 26.5987 262.219 26.4682 261.837 26.3377L262.601 23.0753C263.078 23.2058 263.459 23.3363 263.84 23.3799C264.222 23.4233 264.603 23.4669 264.984 23.4669C265.795 23.4669 266.415 23.2494 266.844 22.8579C267.273 22.4664 267.654 21.9009 267.94 21.205C266.892 19.3781 265.89 17.2901 264.842 15.0283C263.792 12.7229 262.839 10.1565 261.933 7.32916H266.701C266.892 8.02512 267.13 8.80806 267.416 9.67803C267.702 10.5045 267.988 11.3744 268.274 12.2009C268.561 13.0709 268.894 13.8973 269.18 14.6803C269.514 15.5068 269.8 16.2027 270.086 16.8987C270.324 16.2462 270.611 15.5068 270.897 14.6803C271.183 13.8539 271.469 13.0273 271.706 12.2009C271.992 11.3309 272.231 10.5045 272.517 9.67803C272.756 8.85159 272.994 8.06862 273.185 7.32916H278V7.37266Z" fill="#0E90CF"/>
</g>
<defs>
<clipPath id="clip0_737_45">
<rect width="278" height="27" fill="white" transform="translate(0 0.5)"/>
</clipPath>
</defs>
</svg>
