<svg width="30" height="30" viewBox="0 0 30 30" fill="none" xmlns="http://www.w3.org/2000/svg">
<path d="M15.4609 3.62415V2.71295C15.4609 2.47129 15.3649 2.23952 15.194 2.06864C15.0231 1.89776 14.7913 1.80176 14.5497 1.80176C14.308 1.80176 14.0763 1.89776 13.9054 2.06864C13.7345 2.23952 13.6385 2.47129 13.6385 2.71295V3.62415C13.6385 3.86581 13.7345 4.09757 13.9054 4.26846C14.0763 4.43934 14.308 4.53534 14.5497 4.53534C14.7913 4.53534 15.0231 4.43934 15.194 4.26846C15.3649 4.09757 15.4609 3.86581 15.4609 3.62415ZM6.81365 5.53765C6.63934 5.38838 6.41511 5.31037 6.18579 5.31923C5.95646 5.32809 5.73892 5.42315 5.57664 5.58543C5.41437 5.74771 5.3193 5.96525 5.31044 6.19458C5.30158 6.4239 5.37959 6.64812 5.52886 6.82244L6.17581 7.46938C6.35012 7.61866 6.57435 7.69667 6.80367 7.68781C7.033 7.67895 7.25054 7.58388 7.41282 7.4216C7.57509 7.25933 7.67016 7.04179 7.67902 6.81246C7.68788 6.58314 7.60987 6.35891 7.4606 6.1846L6.81365 5.53765ZM3.61536 15.4697C3.85702 15.4697 4.08879 15.3737 4.25967 15.2028C4.43055 15.0319 4.52655 14.8001 4.52655 14.5585C4.52655 14.3168 4.43055 14.085 4.25967 13.9142C4.08879 13.7433 3.85702 13.6473 3.61536 13.6473H2.70416C2.4625 13.6473 2.23073 13.7433 2.05985 13.9142C1.88897 14.085 1.79297 14.3168 1.79297 14.5585C1.79297 14.8001 1.88897 15.0319 2.05985 15.2028C2.23073 15.3737 2.4625 15.4697 2.70416 15.4697H3.61536ZM5.52886 23.5793C5.69959 23.749 5.93053 23.8443 6.17126 23.8443C6.41198 23.8443 6.64292 23.749 6.81365 23.5793L7.4606 22.9323C7.60987 22.758 7.68788 22.5338 7.67902 22.3045C7.67016 22.0752 7.57509 21.8576 7.41282 21.6953C7.25054 21.5331 7.033 21.438 6.80367 21.4291C6.57435 21.4203 6.35012 21.4983 6.17581 21.6476L5.52886 22.2945C5.35915 22.4652 5.2639 22.6962 5.2639 22.9369C5.2639 23.1776 5.35915 23.4086 5.52886 23.5793ZM22.9236 21.6476C22.7492 21.4983 22.525 21.4203 22.2957 21.4291C22.0664 21.438 21.8488 21.5331 21.6866 21.6953C21.5243 21.8576 21.4292 22.0752 21.4204 22.3045C21.4115 22.5338 21.4895 22.758 21.6388 22.9323L22.2857 23.5793C22.46 23.7286 22.6843 23.8066 22.9136 23.7977C23.1429 23.7889 23.3604 23.6938 23.5227 23.5315C23.685 23.3692 23.7801 23.1517 23.7889 22.9224C23.7978 22.693 23.7198 22.4688 23.5705 22.2945L22.9236 21.6476ZM26.3952 13.6473H25.484C25.2423 13.6473 25.0106 13.7433 24.8397 13.9142C24.6688 14.085 24.5728 14.3168 24.5728 14.5585C24.5728 14.8001 24.6688 15.0319 24.8397 15.2028C25.0106 15.3737 25.2423 15.4697 25.484 15.4697H26.3952C26.6369 15.4697 26.8686 15.3737 27.0395 15.2028C27.2104 15.0319 27.3064 14.8001 27.3064 14.5585C27.3064 14.3168 27.2104 14.085 27.0395 13.9142C26.8686 13.7433 26.6369 13.6473 26.3952 13.6473ZM23.5705 5.53765C23.3998 5.36794 23.1688 5.27268 22.9281 5.27268C22.6874 5.27268 22.4564 5.36794 22.2857 5.53765L21.6388 6.1846C21.5434 6.26629 21.4659 6.36681 21.4112 6.47986C21.3565 6.5929 21.3258 6.71603 21.321 6.84152C21.3161 6.96701 21.3372 7.09215 21.3831 7.20908C21.4289 7.32601 21.4984 7.4322 21.5872 7.521C21.676 7.6098 21.7822 7.67929 21.8991 7.7251C22.016 7.77091 22.1411 7.79205 22.2666 7.78721C22.3921 7.78236 22.5153 7.75163 22.6283 7.69693C22.7414 7.64224 22.8419 7.56477 22.9236 7.46938L23.5705 6.82244C23.7402 6.65171 23.8355 6.42077 23.8355 6.18004C23.8355 5.93932 23.7402 5.70838 23.5705 5.53765ZM6.34894 14.5585C6.35093 15.9051 6.68449 17.2304 7.32016 18.4176C7.95583 19.6047 8.87405 20.617 9.99372 21.3651V26.404C9.99372 26.6457 10.0897 26.8774 10.2606 27.0483C10.4315 27.2192 10.6632 27.3152 10.9049 27.3152H18.1945C18.4361 27.3152 18.6679 27.2192 18.8388 27.0483C19.0097 26.8774 19.1057 26.6457 19.1057 26.404V21.3651C20.2841 20.5777 21.2384 19.4983 21.8754 18.2322C22.5124 16.9662 22.8104 15.5566 22.7404 14.141C22.6703 12.7255 22.2346 11.3522 21.4757 10.1552C20.7168 8.95819 19.6606 7.97831 18.4102 7.31111C17.1598 6.64391 15.7577 6.31218 14.3409 6.34826C12.924 6.38434 11.5407 6.78701 10.3259 7.517C9.11102 8.24698 8.10609 9.27936 7.4091 10.5134C6.7121 11.7475 6.34684 13.1412 6.34894 14.5585ZM11.8161 25.4928V23.6704H17.2833V25.4928H11.8161ZM14.5497 8.18012C15.9531 8.18087 17.3172 8.6445 18.4304 9.49915C19.5436 10.3538 20.3439 11.5518 20.7072 12.9074C21.0705 14.263 20.9765 15.7006 20.4399 16.9974C19.9032 18.2942 18.9539 19.3778 17.7389 20.0803C17.5998 20.1606 17.4844 20.2762 17.4044 20.4154C17.3244 20.5546 17.2826 20.7125 17.2833 20.873V21.848H15.4609V16.3809H17.2833C17.5249 16.3809 17.7567 16.2849 17.9276 16.114C18.0985 15.9431 18.1945 15.7113 18.1945 15.4697C18.1945 15.228 18.0985 14.9962 17.9276 14.8254C17.7567 14.6545 17.5249 14.5585 17.2833 14.5585H11.8161C11.5744 14.5585 11.3427 14.6545 11.1718 14.8254C11.0009 14.9962 10.9049 15.228 10.9049 15.4697C10.9049 15.7113 11.0009 15.9431 11.1718 16.114C11.3427 16.2849 11.5744 16.3809 11.8161 16.3809H13.6385V21.848H11.8161V20.8639C11.8167 20.7034 11.7749 20.5455 11.6949 20.4063C11.6149 20.2671 11.4996 20.1515 11.3605 20.0712C10.15 19.3667 9.20503 18.2834 8.67145 16.9885C8.13786 15.6935 8.04533 14.2589 8.40814 12.9062C8.77095 11.5534 9.56893 10.3577 10.6789 9.50352C11.7889 8.64937 13.1491 8.18431 14.5497 8.18012Z" fill="white"/>
</svg>
