<svg width="23" height="22" viewBox="0 0 23 22" fill="none" xmlns="http://www.w3.org/2000/svg">
<path d="M17.9394 3.71856H16.1122V2.80496C16.1122 2.56266 16.0159 2.33028 15.8446 2.15894C15.6733 1.98761 15.4409 1.89136 15.1986 1.89136C14.9563 1.89136 14.7239 1.98761 14.5526 2.15894C14.3813 2.33028 14.285 2.56266 14.285 2.80496V3.71856H8.8034V2.80496C8.8034 2.56266 8.70715 2.33028 8.53581 2.15894C8.36448 1.98761 8.1321 1.89136 7.8898 1.89136C7.6475 1.89136 7.41512 1.98761 7.24379 2.15894C7.07246 2.33028 6.9762 2.56266 6.9762 2.80496V3.71856H5.149C4.4221 3.71856 3.72496 4.00732 3.21096 4.52132C2.69697 5.03532 2.4082 5.73245 2.4082 6.45936V17.4226C2.4082 18.1495 2.69697 18.8466 3.21096 19.3606C3.72496 19.8746 4.4221 20.1634 5.149 20.1634H17.9394C18.6663 20.1634 19.3634 19.8746 19.8774 19.3606C20.3914 18.8466 20.6802 18.1495 20.6802 17.4226V6.45936C20.6802 5.73245 20.3914 5.03532 19.8774 4.52132C19.3634 4.00732 18.6663 3.71856 17.9394 3.71856ZM18.853 17.4226C18.853 17.6649 18.7567 17.8972 18.5854 18.0686C18.4141 18.2399 18.1817 18.3362 17.9394 18.3362H5.149C4.9067 18.3362 4.67432 18.2399 4.50299 18.0686C4.33166 17.8972 4.2354 17.6649 4.2354 17.4226V11.0274H18.853V17.4226ZM18.853 9.20016H4.2354V6.45936C4.2354 6.21705 4.33166 5.98468 4.50299 5.81334C4.67432 5.64201 4.9067 5.54576 5.149 5.54576H6.9762V6.45936C6.9762 6.70166 7.07246 6.93404 7.24379 7.10537C7.41512 7.2767 7.6475 7.37296 7.8898 7.37296C8.1321 7.37296 8.36448 7.2767 8.53581 7.10537C8.70715 6.93404 8.8034 6.70166 8.8034 6.45936V5.54576H14.285V6.45936C14.285 6.70166 14.3813 6.93404 14.5526 7.10537C14.7239 7.2767 14.9563 7.37296 15.1986 7.37296C15.4409 7.37296 15.6733 7.2767 15.8446 7.10537C16.0159 6.93404 16.1122 6.70166 16.1122 6.45936V5.54576H17.9394C18.1817 5.54576 18.4141 5.64201 18.5854 5.81334C18.7567 5.98468 18.853 6.21705 18.853 6.45936V9.20016Z" fill="#00AEFF"/>
</svg>
