<svg width="31" height="31" viewBox="0 0 31 31" fill="none" xmlns="http://www.w3.org/2000/svg">
<g clip-path="url(#clip0_620_7079)">
<path d="M17.9897 24.2607H12.7526L12.1292 22.5773H2.71484V6.55424C2.71484 5.80608 3.33831 5.18262 4.08647 5.18262H27.4041C28.1522 5.18262 28.7757 5.80608 28.7757 6.55424V22.6396H19.2367L17.9897 24.2607ZM13.4384 23.3255H17.5533L18.8003 21.6421H27.8405V6.55424C27.8405 6.30485 27.6535 6.11782 27.4041 6.11782H4.08647C3.83708 6.11782 3.65004 6.30485 3.65004 6.55424V21.7045H12.815L13.4384 23.3255Z" fill="white"/>
<path d="M26.2158 26.1311H5.26737C3.02289 26.1311 1.21484 24.3231 1.21484 22.0786V21.5798H12.749L13.3724 23.2632H17.4873L18.7342 21.5798H30.206V22.0786C30.2683 24.3231 28.3979 26.1311 26.2158 26.1311ZM2.21239 22.5774C2.46177 24.0737 3.70871 25.1959 5.26737 25.1959H26.1535C27.7121 25.1959 29.0214 24.0737 29.2084 22.5774H19.233L17.9861 24.2607H12.749L12.1255 22.5774H2.21239Z" fill="white"/>
<path d="M11.1952 8.48706H6.39453V12.6643H11.1952V8.48706Z" fill="white"/>
<path d="M11.6304 13.1009H5.89453V7.98853H11.6304V13.1009ZM6.82973 12.1657H10.6952V8.92372H6.82973V12.1657Z" fill="white"/>
<path d="M11.1952 15.0959H6.39453V19.2732H11.1952V15.0959Z" fill="white"/>
<path d="M11.6304 19.7721H5.89453V14.6597H11.6304V19.7721ZM6.82973 18.8369H10.6952V15.5949H6.82973V18.8369Z" fill="white"/>
<path d="M25.3475 10.0459H14.1875V10.9811H25.3475V10.0459Z" fill="white"/>
<path d="M25.3475 16.7168H14.1875V17.652H25.3475V16.7168Z" fill="white"/>
</g>
<defs>
<clipPath id="clip0_620_7079">
<rect width="29.9263" height="29.9263" fill="white" transform="translate(0.785156 0.693848)"/>
</clipPath>
</defs>
</svg>
