<svg width="23" height="24" viewBox="0 0 23 24" fill="none" xmlns="http://www.w3.org/2000/svg">
<g clip-path="url(#clip0_585_3729)">
<path d="M15.3916 12.5205C17.3076 12.5205 18.869 10.8138 18.869 8.73726C18.869 6.6843 17.3156 5.05811 15.3916 5.05811C13.4836 5.05811 11.9138 6.70832 11.9138 8.75327C11.9218 10.8218 13.4836 12.5205 15.3916 12.5205ZM6.11804 12.6975C7.77626 12.6975 9.13663 11.2082 9.13663 9.38101C9.13663 7.59388 7.79227 6.15304 6.11804 6.15304C4.45982 6.15304 3.09145 7.6183 3.09946 9.39702C3.10746 11.2166 4.45982 12.6975 6.11804 12.6975ZM15.3916 11.3051C14.2162 11.3051 13.2097 10.1781 13.2097 8.75327C13.2097 7.35207 14.2002 6.27395 15.3916 6.27395C16.591 6.27395 17.5731 7.33646 17.5731 8.73686C17.5731 10.1621 16.583 11.3051 15.3916 11.3051ZM6.11804 11.498C5.136 11.498 4.29888 10.5564 4.29888 9.39702C4.29888 8.26205 5.12759 7.35247 6.11804 7.35247C7.13211 7.35247 7.94521 8.24604 7.94521 9.38101C7.94521 10.5564 7.10809 11.498 6.11804 11.498ZM1.64221 20.0794H7.96162C7.57489 19.862 7.27703 19.3788 7.33348 18.888H1.44123C1.2803 18.888 1.19983 18.8239 1.19983 18.6706C1.19983 16.6745 3.47778 14.8069 6.11043 14.8069C7.1245 14.8069 8.03408 15.0483 8.81515 15.5071C9.07424 15.179 9.38081 14.8915 9.72473 14.6539C8.68624 13.9693 7.43877 13.6154 6.11043 13.6154C2.73714 13.6154 0 16.0623 0 18.743C0 19.6366 0.547269 20.0794 1.64221 20.0794ZM10.3361 20.0794H20.4471C21.7831 20.0794 22.4192 19.677 22.4192 18.7915C22.4192 16.6825 19.7545 13.6311 15.3916 13.6311C11.0202 13.6311 8.35596 16.6825 8.35596 18.7915C8.35596 19.677 8.9917 20.0794 10.3361 20.0794ZM9.94972 18.8639C9.74034 18.8639 9.65187 18.8079 9.65187 18.6385C9.65187 17.3182 11.6964 14.8473 15.3916 14.8473C19.0787 14.8473 21.1229 17.3182 21.1229 18.6385C21.1229 18.8075 21.0428 18.8639 20.833 18.8639H9.94972Z" fill="#00AEFF"/>
</g>
<defs>
<clipPath id="clip0_585_3729">
<rect width="22.4192" height="22.4192" fill="white" transform="translate(0 0.817871)"/>
</clipPath>
</defs>
</svg>
