<svg width="540" height="267" viewBox="0 0 540 267" fill="none" xmlns="http://www.w3.org/2000/svg">
<g style="mix-blend-mode:plus-lighter" opacity="0.2">
<path fill-rule="evenodd" clip-rule="evenodd" d="M457.762 1.74341L539.54 1.74341V83.5218H530.778C490.452 83.5218 457.762 50.8312 457.762 10.5054V1.74341Z" fill="#A3A3A3" fill-opacity="0.2"/>
<path fill-rule="evenodd" clip-rule="evenodd" d="M449.781 1.74341L368.003 1.74341V83.5218H376.765C417.091 83.5218 449.781 50.8312 449.781 10.5054V1.74341Z" fill="#A3A3A3" fill-opacity="0.2"/>
<path fill-rule="evenodd" clip-rule="evenodd" d="M356.035 83.522L275.254 83.522V1.7436H283.909C323.743 1.7436 356.035 34.4342 356.035 74.76V83.522Z" fill="#A3A3A3" fill-opacity="0.2"/>
<path fill-rule="evenodd" clip-rule="evenodd" d="M183.504 83.522L265.282 83.522V1.7436H256.52C216.194 1.7436 183.504 34.4342 183.504 74.76V83.522Z" fill="#A3A3A3" fill-opacity="0.2"/>
<path d="M353.536 189.155V191.089H353.992V191.655H356.036V194.957H353.536V198.825H356.036V202.694H353.536V206.562H356.036V210.431H353.536V214.299H356.036V218.167H353.536V222.035H356.036V225.904H353.536V229.773H356.036V233.641H353.536V237.509H356.036V241.377H353.536V245.245H356.036V249.115H353.536V252.983H356.036V256.851H353.536V260.719H356.036V264.022H353.846V264.587H353.536V266.522H349.465V264.022H347.274C346.627 264.022 345.982 264.014 345.339 263.997L345.275 266.495C343.939 266.461 342.612 266.393 341.295 266.292L341.486 263.801C340.197 263.702 338.918 263.571 337.649 263.407L337.33 265.885C336.006 265.714 334.692 265.511 333.392 265.274L333.84 262.816C332.57 262.584 331.311 262.32 330.066 262.026L329.49 264.456C328.192 264.149 326.907 263.81 325.638 263.438L326.341 261.039C325.103 260.676 323.879 260.282 322.672 259.858L321.843 262.215C320.584 261.773 319.342 261.298 318.117 260.793L319.071 258.484C317.88 257.992 316.705 257.47 315.549 256.919L314.474 259.175C313.27 258.602 312.086 257.998 310.922 257.365L312.117 255.17C310.986 254.555 309.875 253.91 308.785 253.239L307.474 255.365C306.34 254.667 305.227 253.94 304.138 253.184L305.563 251.13C304.507 250.397 303.472 249.637 302.462 248.851L300.927 250.823C299.876 250.005 298.849 249.159 297.849 248.288L299.49 246.405C298.521 245.561 297.576 244.691 296.658 243.798L294.915 245.589C293.961 244.661 293.035 243.707 292.137 242.73L293.979 241.04C293.11 240.095 292.27 239.126 291.459 238.136L289.524 239.719C288.682 238.69 287.87 237.638 287.089 236.565L289.109 235.095C288.355 234.059 287.631 233.001 286.939 231.924L284.837 233.275C284.119 232.157 283.433 231.018 282.781 229.86L284.959 228.634C284.332 227.52 283.737 226.386 283.177 225.236L280.93 226.329C280.348 225.136 279.801 223.924 279.291 222.696L281.6 221.738C281.11 220.559 280.655 219.363 280.235 218.153L277.874 218.97C277.44 217.717 277.043 216.449 276.684 215.165L279.091 214.492C278.747 213.265 278.44 212.024 278.17 210.77L275.726 211.295C275.447 210.001 275.209 208.694 275.008 207.375L277.479 207C277.287 205.743 277.132 204.474 277.017 203.195L274.527 203.419C274.408 202.103 274.328 200.777 274.288 199.441L276.787 199.367C276.768 198.729 276.758 198.087 276.758 197.444V195.371H274.258V191.655H276.303V191.227H276.758V189.155H280.392V191.655H284.48V189.155H288.569V191.655H292.658V189.155H296.747V191.655H300.836V189.155H304.925V191.655H309.014V189.155H313.103V191.655H317.191V189.155H321.28V191.655H325.369V189.155H329.458V191.655H333.547V189.155H337.636V191.655H341.725V189.155H345.813V191.655H349.902V189.155H353.536Z" stroke="#A3A3A3" stroke-opacity="0.3" stroke-width="5" stroke-dasharray="4 4"/>
<path fill-rule="evenodd" clip-rule="evenodd" d="M266.277 189.155H184.499V266.522H193.261C233.587 266.522 266.277 235.595 266.277 197.444V189.155Z" fill="#A3A3A3" fill-opacity="0.2"/>
<path fill-rule="evenodd" clip-rule="evenodd" d="M172.531 266.522H91.7502L91.7502 189.154H100.405C140.239 189.154 172.531 220.082 172.531 258.232V266.522Z" fill="#A3A3A3" fill-opacity="0.2"/>
<path fill-rule="evenodd" clip-rule="evenodd" d="M0 266.522H81.7784L81.7784 189.154H73.0164C32.6906 189.154 0 220.082 0 258.232L0 266.522Z" fill="#A3A3A3" fill-opacity="0.2"/>
<path d="M79.7344 99.522V100.522H80.7783V101.457H81.7783V105.325H80.7783V109.193H81.7783V113.061H80.7783V116.929H81.7783V120.798H80.7783V124.667H81.7783V128.535H80.7783V132.403H81.7783V136.271H80.7783V140.14H81.7783V144.008H80.7783V147.876H81.7783V151.745H80.7783L80.7783 155.613H81.7783V159.482H80.7783V163.35H81.7783V167.218H80.7783V171.086H81.7783V174.955H80.7783V175.889H79.5879V176.889H75.207V175.889H73.0166C72.3567 175.889 71.6985 175.88 71.043 175.864L71.0176 176.863C69.6815 176.829 68.3544 176.761 67.0371 176.66L67.1133 175.664C65.7986 175.563 64.4939 175.429 63.2002 175.262L63.0723 176.252C61.7478 176.082 60.4347 175.878 59.1338 175.641L59.3125 174.659C58.0166 174.423 56.7329 174.154 55.4629 173.853L55.2324 174.824C53.9342 174.516 52.6495 174.177 51.3799 173.805L51.6611 172.846C50.3978 172.476 49.1494 172.073 47.917 171.64L47.585 172.583C46.3263 172.14 45.0841 171.666 43.8594 171.161L44.2412 170.238C43.0251 169.736 41.8265 169.203 40.6465 168.641L40.2158 169.542C39.0125 168.969 37.8281 168.365 36.6641 167.732L37.1426 166.855C35.988 166.227 34.8533 165.569 33.7402 164.883L33.2158 165.733C32.0818 165.034 30.9691 164.307 29.8799 163.551L30.4502 162.73C29.3712 161.981 28.3152 161.205 27.2832 160.402L26.6689 161.19C25.6178 160.372 24.5916 159.527 23.5908 158.656L24.2471 157.903C23.2569 157.041 22.2921 156.153 21.3545 155.241L20.6572 155.957C19.7034 155.028 18.7768 154.075 17.8789 153.097L18.6162 152.422C17.729 151.456 16.8693 150.466 16.04 149.454L15.2666 150.086C14.4241 149.058 13.6123 148.006 12.8311 146.932L13.6387 146.344C12.8679 145.285 12.1276 144.204 11.4199 143.103L10.5791 143.642C9.8608 142.524 9.1753 141.385 8.52344 140.227L9.39453 139.738C8.75283 138.598 8.14411 137.438 7.57031 136.26L6.67187 136.697C6.09041 135.503 5.5436 134.292 5.0332 133.063L5.95605 132.68C5.45493 131.474 4.98965 130.25 4.56055 129.011L3.61621 129.337C3.18229 128.085 2.78479 126.816 2.42578 125.533L3.38867 125.264C3.03713 124.008 2.72253 122.737 2.44629 121.453L1.46777 121.663C1.18942 120.369 0.950738 119.062 0.75 117.743L1.7373 117.593C1.54141 116.306 1.38424 115.007 1.26562 113.698L0.269531 113.787C0.150349 112.471 0.0703592 111.144 0.0302734 109.808L1.0293 109.78C1.00967 109.126 1 108.469 1 107.811L1 105.739H0L0 101.594H1L1 100.522H2.04492V99.522H6.13379V100.522H10.2227V99.522H14.3115V100.522H18.4004V99.522H22.4893V100.522H26.5781V99.522H30.667V100.522H34.7559V99.522H38.8447V100.522H42.9336V99.522H47.0225V100.522H51.1113V99.522H55.2002V100.522H59.2891V99.522L63.3779 99.522V100.522H67.4668V99.522H71.5557V100.522H75.6445V99.522H79.7344Z" stroke="#A3A3A3" stroke-opacity="0.3" stroke-width="2" stroke-dasharray="4 4"/>
<path fill-rule="evenodd" clip-rule="evenodd" d="M171.535 176.889H89.7568L89.7568 99.5219H98.5188C138.845 99.5219 171.535 130.449 171.535 168.6V176.889Z" fill="#A3A3A3" fill-opacity="0.2"/>
<path d="M458.265 266.522V264.587H457.809V264.022H455.765V260.719H458.265V256.851H455.765V252.983H458.265V249.115H455.765V245.245H458.265V241.377H455.765V237.509H458.265V233.641H455.765V229.773H458.265V225.904H455.765V222.035H458.265V218.167H455.765V214.299H458.265V210.431H455.765V206.562H458.265V202.694H455.765V198.825H458.265V194.957H455.765V191.655H457.955V191.089H458.265V189.155H462.336V191.655H464.526C465.174 191.655 465.819 191.663 466.462 191.679L466.525 189.181C467.861 189.215 469.189 189.283 470.506 189.384L470.314 191.875C471.604 191.974 472.883 192.105 474.151 192.269L474.471 189.791C475.795 189.962 477.108 190.166 478.409 190.403L477.961 192.861C479.231 193.092 480.49 193.356 481.734 193.651L482.311 191.22C483.609 191.527 484.893 191.866 486.163 192.239L485.46 194.637C486.698 195 487.921 195.394 489.129 195.819L489.958 193.461C491.217 193.904 492.459 194.378 493.684 194.883L492.729 197.193C493.921 197.684 495.096 198.206 496.252 198.757L497.327 196.501C498.53 197.075 499.715 197.678 500.879 198.312L499.684 200.506C500.814 201.121 501.926 201.766 503.016 202.438L504.327 200.311C505.461 201.01 506.574 201.737 507.663 202.492L506.237 204.546C507.294 205.279 508.328 206.039 509.339 206.825L510.874 204.854C511.925 205.672 512.951 206.517 513.952 207.388L512.311 209.272C513.28 210.116 514.225 210.985 515.143 211.878L516.886 210.087C517.84 211.015 518.766 211.969 519.664 212.947L517.822 214.636C518.69 215.581 519.531 216.55 520.342 217.54L522.276 215.957C523.119 216.986 523.931 218.038 524.712 219.112L522.691 220.581C523.445 221.617 524.169 222.675 524.861 223.752L526.964 222.402C527.682 223.52 528.368 224.658 529.02 225.817L526.842 227.042C527.469 228.157 528.063 229.29 528.624 230.441L530.871 229.347C531.453 230.54 531.999 231.752 532.51 232.981L530.201 233.939C530.691 235.118 531.146 236.313 531.565 237.524L533.927 236.706C534.361 237.959 534.758 239.228 535.117 240.511L532.71 241.184C533.053 242.411 533.361 243.652 533.631 244.906L536.075 244.381C536.354 245.675 536.592 246.982 536.793 248.301L534.322 248.676C534.514 249.933 534.668 251.202 534.784 252.482L537.273 252.257C537.393 253.573 537.473 254.9 537.513 256.236L535.014 256.309C535.033 256.948 535.043 257.589 535.043 258.233V260.305H537.543V264.022H535.498V264.449H535.043V266.522H531.409V264.022H527.32V266.522H523.231V264.022H519.143V266.522H515.054V264.022H510.965V266.522H506.876V264.022H502.787V266.522H498.698V264.022H494.609V266.522H490.521V264.022H486.432V266.522H482.343V264.022H478.254V266.522H474.165V264.022H470.076V266.522H465.987V264.022H461.898V266.522H458.265Z" stroke="#A3A3A3" stroke-opacity="0.3" stroke-width="5" stroke-dasharray="4 4"/>
<path fill-rule="evenodd" clip-rule="evenodd" d="M365.012 266.522H445.793V189.154H437.138C397.304 189.154 365.012 220.082 365.012 258.232V266.522Z" fill="#A3A3A3" fill-opacity="0.2"/>
<path fill-rule="evenodd" clip-rule="evenodd" d="M365.012 99.522L445.793 99.522V176.889H437.138C397.304 176.889 365.012 145.962 365.012 107.811V99.522Z" fill="#A3A3A3" fill-opacity="0.2"/>
<path fill-rule="evenodd" clip-rule="evenodd" d="M535.547 176.889H454.766V99.5219H463.421C503.255 99.5219 535.547 130.449 535.547 168.6V176.889Z" fill="#A3A3A3" fill-opacity="0.2"/>
<path d="M186.004 176.889V174.955H185.523V174.389H183.504V171.086H186.004V167.218H183.504V163.35H186.004V159.482H183.504V155.613H186.004V151.745H183.504V147.876H186.004V144.008H183.504V140.14H186.004V136.271H183.504V132.403H186.004V128.535H183.504V124.667H186.004V120.798H183.504V116.929H186.004V113.061H183.504V109.193H186.004V105.325H183.504V102.022H185.668V101.457H186.004V99.522H189.995V102.022H192.159C192.802 102.022 193.442 102.03 194.08 102.046L194.146 99.5483C195.473 99.5827 196.792 99.6522 198.101 99.7544L197.905 102.246C199.185 102.346 200.455 102.478 201.714 102.643L202.039 100.166C203.355 100.338 204.659 100.545 205.951 100.785L205.495 103.242C206.755 103.475 208.004 103.742 209.238 104.04L209.824 101.611C211.113 101.922 212.388 102.264 213.647 102.64L212.933 105.035C214.16 105.401 215.373 105.799 216.57 106.228L217.413 103.876C218.661 104.323 219.892 104.801 221.105 105.311L220.137 107.615C221.316 108.11 222.479 108.637 223.623 109.192L224.715 106.944C225.906 107.522 227.078 108.131 228.23 108.769L227.019 110.955C228.136 111.574 229.235 112.223 230.312 112.899L231.641 110.782C232.761 111.485 233.86 112.218 234.937 112.978L233.494 115.019C234.537 115.756 235.558 116.52 236.555 117.31L238.107 115.352C239.144 116.174 240.157 117.022 241.144 117.897L239.485 119.767C240.44 120.614 241.37 121.486 242.273 122.381L244.033 120.607C244.972 121.537 245.884 122.492 246.768 123.472L244.911 125.146C245.765 126.092 246.59 127.062 247.388 128.053L249.336 126.488C250.164 127.517 250.961 128.57 251.729 129.644L249.695 131.096C250.435 132.132 251.145 133.189 251.824 134.265L253.938 132.932C254.642 134.049 255.315 135.186 255.954 136.342L253.766 137.55C254.38 138.662 254.963 139.793 255.512 140.941L257.767 139.864C258.335 141.053 258.87 142.26 259.369 143.485L257.055 144.428C257.534 145.603 257.979 146.794 258.389 148L260.756 147.196C261.18 148.443 261.567 149.706 261.918 150.984L259.508 151.644C259.843 152.865 260.143 154.101 260.406 155.349L262.852 154.833C263.123 156.12 263.358 157.419 263.554 158.73L261.082 159.098C261.269 160.348 261.419 161.61 261.532 162.882L264.021 162.662C264.138 163.97 264.217 165.288 264.256 166.616L261.757 166.688C261.776 167.323 261.785 167.961 261.785 168.6V170.672H264.285V174.389H262.266V174.817H261.785V176.889H258.227V174.389H254.188V176.889H250.148V174.389H246.109V176.889H242.07V174.389H238.031V176.889H233.992V174.389H229.953V176.889H225.914V174.389H221.875V176.889H217.836V174.389H213.797V176.889H209.758V174.389H205.719V176.889H201.68V174.389H197.641V176.889H193.602V174.389H189.562V176.889H186.004Z" stroke="#A3A3A3" stroke-opacity="0.3" stroke-width="5" stroke-dasharray="4 4"/>
<path fill-rule="evenodd" clip-rule="evenodd" d="M274.258 176.889H356.036V99.5219H347.274C306.948 99.5219 274.258 130.449 274.258 168.6V176.889Z" fill="#A3A3A3" fill-opacity="0.2"/>
</g>
</svg>
