<svg width="30" height="30" viewBox="0 0 30 30" fill="none" xmlns="http://www.w3.org/2000/svg">
<path d="M15.0468 3.62415V2.71295C15.0468 2.47129 14.9508 2.23952 14.7799 2.06864C14.6091 1.89776 14.3773 1.80176 14.1356 1.80176C13.894 1.80176 13.6622 1.89776 13.4913 2.06864C13.3204 2.23952 13.2244 2.47129 13.2244 2.71295V3.62415C13.2244 3.86581 13.3204 4.09757 13.4913 4.26846C13.6622 4.43934 13.894 4.53534 14.1356 4.53534C14.3773 4.53534 14.6091 4.43934 14.7799 4.26846C14.9508 4.09757 15.0468 3.86581 15.0468 3.62415ZM6.39959 5.53765C6.22527 5.38838 6.00105 5.31037 5.77172 5.31923C5.5424 5.32809 5.32486 5.42315 5.16258 5.58543C5.0003 5.74771 4.90524 5.96525 4.89638 6.19458C4.88752 6.4239 4.96552 6.64812 5.1148 6.82244L5.76175 7.46938C5.93606 7.61866 6.16028 7.69667 6.38961 7.68781C6.61894 7.67895 6.83647 7.58388 6.99875 7.4216C7.16103 7.25933 7.2561 7.04179 7.26496 6.81246C7.27381 6.58314 7.19581 6.35891 7.04653 6.1846L6.39959 5.53765ZM3.20129 15.4697C3.44296 15.4697 3.67472 15.3737 3.84561 15.2028C4.01649 15.0319 4.11249 14.8001 4.11249 14.5585C4.11249 14.3168 4.01649 14.085 3.84561 13.9142C3.67472 13.7433 3.44296 13.6473 3.20129 13.6473H2.2901C2.04844 13.6473 1.81667 13.7433 1.64579 13.9142C1.47491 14.085 1.37891 14.3168 1.37891 14.5585C1.37891 14.8001 1.47491 15.0319 1.64579 15.2028C1.81667 15.3737 2.04844 15.4697 2.2901 15.4697H3.20129ZM5.1148 23.5793C5.28553 23.749 5.51647 23.8443 5.75719 23.8443C5.99792 23.8443 6.22886 23.749 6.39959 23.5793L7.04653 22.9323C7.19581 22.758 7.27381 22.5338 7.26496 22.3045C7.2561 22.0752 7.16103 21.8576 6.99875 21.6953C6.83647 21.5331 6.61894 21.438 6.38961 21.4291C6.16028 21.4203 5.93606 21.4983 5.76175 21.6476L5.1148 22.2945C4.94509 22.4652 4.84983 22.6962 4.84983 22.9369C4.84983 23.1776 4.94509 23.4086 5.1148 23.5793ZM22.5095 21.6476C22.3352 21.4983 22.111 21.4203 21.8816 21.4291C21.6523 21.438 21.4348 21.5331 21.2725 21.6953C21.1102 21.8576 21.0151 22.0752 21.0063 22.3045C20.9974 22.5338 21.0754 22.758 21.2247 22.9323L21.8717 23.5793C22.046 23.7286 22.2702 23.8066 22.4995 23.7977C22.7288 23.7889 22.9464 23.6938 23.1087 23.5315C23.2709 23.3692 23.366 23.1517 23.3749 22.9224C23.3837 22.693 23.3057 22.4688 23.1564 22.2945L22.5095 21.6476ZM25.9811 13.6473H25.07C24.8283 13.6473 24.5965 13.7433 24.4256 13.9142C24.2548 14.085 24.1588 14.3168 24.1588 14.5585C24.1588 14.8001 24.2548 15.0319 24.4256 15.2028C24.5965 15.3737 24.8283 15.4697 25.07 15.4697H25.9811C26.2228 15.4697 26.4546 15.3737 26.6255 15.2028C26.7963 15.0319 26.8923 14.8001 26.8923 14.5585C26.8923 14.3168 26.7963 14.085 26.6255 13.9142C26.4546 13.7433 26.2228 13.6473 25.9811 13.6473ZM23.1564 5.53765C22.9857 5.36794 22.7548 5.27268 22.5141 5.27268C22.2733 5.27268 22.0424 5.36794 21.8717 5.53765L21.2247 6.1846C21.1293 6.26629 21.0519 6.36681 20.9972 6.47986C20.9425 6.5929 20.9117 6.71603 20.9069 6.84152C20.902 6.96701 20.9232 7.09215 20.969 7.20908C21.0148 7.32601 21.0843 7.4322 21.1731 7.521C21.2619 7.6098 21.3681 7.67929 21.485 7.7251C21.6019 7.77091 21.7271 7.79205 21.8526 7.78721C21.9781 7.78236 22.1012 7.75163 22.2142 7.69693C22.3273 7.64224 22.4278 7.56477 22.5095 7.46938L23.1564 6.82244C23.3262 6.65171 23.4214 6.42077 23.4214 6.18004C23.4214 5.93932 23.3262 5.70838 23.1564 5.53765ZM5.93488 14.5585C5.93687 15.9051 6.27043 17.2304 6.9061 18.4176C7.54177 19.6047 8.45999 20.617 9.57965 21.3651V26.404C9.57965 26.6457 9.67565 26.8774 9.84654 27.0483C10.0174 27.2192 10.2492 27.3152 10.4908 27.3152H17.7804C18.0221 27.3152 18.2538 27.2192 18.4247 27.0483C18.5956 26.8774 18.6916 26.6457 18.6916 26.404V21.3651C19.8701 20.5777 20.8243 19.4983 21.4613 18.2322C22.0984 16.9662 22.3964 15.5566 22.3263 14.141C22.2563 12.7255 21.8206 11.3522 21.0617 10.1552C20.3027 8.95819 19.2466 7.97831 17.9961 7.31111C16.7457 6.64391 15.3437 6.31218 13.9268 6.34826C12.51 6.38434 11.1267 6.78701 9.91182 7.517C8.69696 8.24698 7.69203 9.27936 6.99504 10.5134C6.29804 11.7475 5.93278 13.1412 5.93488 14.5585ZM11.402 25.4928V23.6704H16.8692V25.4928H11.402ZM14.1356 8.18012C15.5391 8.18087 16.9031 8.6445 18.0163 9.49915C19.1296 10.3538 19.9298 11.5518 20.2931 12.9074C20.6564 14.263 20.5625 15.7006 20.0258 16.9974C19.4892 18.2942 18.5398 19.3778 17.3248 20.0803C17.1858 20.1606 17.0704 20.2762 16.9904 20.4154C16.9104 20.5546 16.8686 20.7125 16.8692 20.873V21.848H15.0468V16.3809H16.8692C17.1109 16.3809 17.3426 16.2849 17.5135 16.114C17.6844 15.9431 17.7804 15.7113 17.7804 15.4697C17.7804 15.228 17.6844 14.9962 17.5135 14.8254C17.3426 14.6545 17.1109 14.5585 16.8692 14.5585H11.402C11.1604 14.5585 10.9286 14.6545 10.7577 14.8254C10.5868 14.9962 10.4908 15.228 10.4908 15.4697C10.4908 15.7113 10.5868 15.9431 10.7577 16.114C10.9286 16.2849 11.1604 16.3809 11.402 16.3809H13.2244V21.848H11.402V20.8639C11.4027 20.7034 11.3609 20.5455 11.2809 20.4063C11.2009 20.2671 11.0855 20.1515 10.9464 20.0712C9.73594 19.3667 8.79097 18.2834 8.25738 16.9885C7.7238 15.6935 7.63127 14.2589 7.99408 12.9062C8.35689 11.5534 9.15487 10.3577 10.2648 9.50352C11.3748 8.64937 12.7351 8.18431 14.1356 8.18012Z" fill="white"/>
</svg>
