<svg width="59" height="59" viewBox="0 0 59 59" fill="none" xmlns="http://www.w3.org/2000/svg">
<rect x="0.320312" y="0.684082" width="58.309" height="58.309" rx="13.9942" fill="url(#paint0_linear_1046_7207)"/>
<path d="M28.0038 27.3647C27.4564 27.8657 27.1474 28.5461 27.1445 29.2564C27.1445 29.9678 27.4517 30.65 27.9984 31.153C28.5452 31.656 29.2868 31.9386 30.06 31.9386C30.8321 31.936 31.5716 31.6517 32.1161 31.1481" stroke="white" stroke-width="2.33236" stroke-linecap="round" stroke-linejoin="round"/>
<path d="M30.0589 21.2097C28.329 21.2097 26.638 21.6816 25.1996 22.5658C23.7613 23.45 22.6403 24.7067 21.9783 26.177C21.3163 27.6474 21.1431 29.2653 21.4806 30.8262C21.818 32.3871 22.6511 33.8209 23.8743 34.9462C25.0975 36.0715 26.6559 36.8379 28.3525 37.1484C30.0492 37.4589 31.8078 37.2995 33.4059 36.6905C35.0041 36.0815 36.3701 35.0501 37.3312 33.7268C38.2922 32.4036 38.8052 30.8478 38.8052 29.2564" stroke="white" stroke-width="2.33236" stroke-linecap="round" stroke-linejoin="round"/>
<path d="M30.0577 15.845C27.1746 15.845 24.3563 16.6315 21.959 18.1051C19.5618 19.5788 17.6934 21.6733 16.5901 24.1238C15.4868 26.5744 15.1981 29.2709 15.7606 31.8724C16.323 34.4739 17.7114 36.8635 19.7501 38.7391C21.7887 40.6147 24.3861 41.892 27.2138 42.4094C30.0416 42.9269 32.9726 42.6613 35.6362 41.6463C38.2999 40.6312 40.5765 38.9123 42.1783 36.7068C43.78 34.5014 44.635 31.9085 44.635 29.256M35.4667 24.2812L31.5155 27.9149" stroke="white" stroke-width="2.33236" stroke-linecap="round" stroke-linejoin="round"/>
<path d="M43.7775 20.5661L38.8059 21.2098L39.5056 16.636C39.5107 16.5828 39.4985 16.5295 39.4705 16.4828C39.4426 16.4361 39.4001 16.3981 39.3485 16.3737C39.297 16.3493 39.2387 16.3396 39.1811 16.3458C39.1235 16.3521 39.0693 16.3739 39.0253 16.4087L35.7293 19.4255C35.3908 19.7392 35.1418 20.125 35.0044 20.5486C34.8671 20.9722 34.8457 21.4205 34.9421 21.8536L35.4669 24.2817L38.1062 24.7631C38.5769 24.8518 39.0642 24.8321 39.5246 24.7058C39.9851 24.5794 40.4044 24.3503 40.7454 24.0389L44.023 21.008C44.0609 20.9674 44.0847 20.9174 44.0915 20.8642C44.0982 20.8111 44.0875 20.7574 44.0608 20.7099C44.0341 20.6624 43.9926 20.6233 43.9415 20.5977C43.8905 20.5721 43.8323 20.5611 43.7744 20.5661" stroke="white" stroke-width="2.33236" stroke-linecap="round" stroke-linejoin="round"/>
<defs>
<linearGradient id="paint0_linear_1046_7207" x1="-3.17823" y1="29.8386" x2="73.2066" y2="28.6724" gradientUnits="userSpaceOnUse">
<stop stop-color="#00C853"/>
<stop offset="1" stop-color="#00B5DE" stop-opacity="0.75"/>
</linearGradient>
</defs>
</svg>
