<svg width="43" height="42" viewBox="0 0 43 42" fill="none" xmlns="http://www.w3.org/2000/svg">
<rect width="43" height="42" rx="10" fill="white"/>
<path d="M34.8876 29L32.5698 24.8865L28.0105 16.7396L25.9219 13.0267L17.9241 23.3105C17.2364 24.2454 16.1666 24.8598 14.944 24.8598C12.8808 24.8598 11.1998 23.0968 11.1998 20.9332C11.1998 18.7696 12.8299 17.0067 14.9185 17.0067C17.0071 17.0067 18.6627 18.7696 18.6627 20.9332C18.6627 21.1469 18.6373 21.3339 18.6118 21.5476L21.7447 17.5409C20.5221 14.8698 17.9241 13 14.8931 13C10.7158 13 7.30273 16.5526 7.30273 20.96C7.30273 25.3406 10.7158 29 14.8931 29C17.3127 29 19.4778 27.7713 20.8532 25.8748L25.387 20.0518L28.0869 24.8865L28.1379 24.9933H22.1013C22.1013 24.9933 22.1013 25.02 22.1268 25.0468C22.2796 25.5276 23.0182 28.7596 26.9917 29H34.8876Z" fill="#0E90CF"/>
</svg>
