<svg width="59" height="59" viewBox="0 0 59 59" fill="none" xmlns="http://www.w3.org/2000/svg">
<rect x="0.222656" y="0.684082" width="58.309" height="58.309" rx="13.9942" fill="url(#paint0_linear_1046_7208)"/>
<path d="M17.3535 26.7174C17.7934 26.7174 18.2153 26.8635 18.5264 27.1236C18.8375 27.3836 19.0123 27.7363 19.0123 28.104C21.6184 28.1008 24.1494 28.8338 26.1947 30.1839H29.7942C32.0037 30.1839 33.9909 30.9882 35.3577 32.2638H40.5761C42.1441 32.2635 43.6801 32.6347 45.0059 33.3344C46.3318 34.034 47.3932 35.0336 48.0671 36.217C44.1441 40.5432 37.7927 43.3566 30.6236 43.3566C25.9956 43.3566 22.081 42.5205 18.9111 41.0577C18.7946 41.3251 18.5825 41.5562 18.3036 41.7194C18.0246 41.8826 17.6923 41.9701 17.3518 41.97H12.3756C11.9356 41.97 11.5137 41.8239 11.2026 41.5639C10.8916 41.3039 10.7168 40.9512 10.7168 40.5834V28.104C10.7168 27.7363 10.8916 27.3836 11.2026 27.1236C11.5137 26.8635 11.9356 26.7174 12.3756 26.7174H17.3535ZM19.0123 30.8772V37.8407L19.0869 37.8851C22.0627 39.6322 25.9426 40.5834 30.6236 40.5834C35.6065 40.5834 40.2411 38.9805 43.62 36.2434L43.8406 36.059L43.6415 35.9203C42.858 35.4079 41.9087 35.1037 40.9162 35.0467L40.5761 35.037H37.0728C37.1945 35.4835 37.2564 35.9457 37.2586 36.4236V37.8102H22.3298V35.037L33.5928 35.0356L33.5364 34.9261C33.2184 34.371 32.7293 33.8967 32.1195 33.5518C31.5096 33.207 30.8009 33.0042 30.0662 32.9641L29.7942 32.9571H24.934C24.162 32.2987 23.2406 31.7756 22.2238 31.4185C21.207 31.0614 20.1152 30.8774 19.0123 30.8772ZM15.6947 29.4906H14.036V39.1968H15.6947V29.4906ZM38.9174 21.171C40.2372 21.171 41.5029 21.6093 42.4361 22.3894C43.3694 23.1695 43.8937 24.2276 43.8937 25.3308C43.8937 26.4341 43.3694 27.4921 42.4361 28.2723C41.5029 29.0524 40.2372 29.4906 38.9174 29.4906C37.5976 29.4906 36.3318 29.0524 35.3986 28.2723C34.4654 27.4921 33.9411 26.4341 33.9411 25.3308C33.9411 24.2276 34.4654 23.1695 35.3986 22.3894C36.3318 21.6093 37.5976 21.171 38.9174 21.171ZM38.9174 23.9442C38.4774 23.9442 38.0555 24.0903 37.7445 24.3504C37.4334 24.6104 37.2586 24.9631 37.2586 25.3308C37.2586 25.6986 37.4334 26.0513 37.7445 26.3113C38.0555 26.5713 38.4774 26.7174 38.9174 26.7174C39.3573 26.7174 39.7792 26.5713 40.0903 26.3113C40.4014 26.0513 40.5761 25.6986 40.5761 25.3308C40.5761 24.9631 40.4014 24.6104 40.0903 24.3504C39.7792 24.0903 39.3573 23.9442 38.9174 23.9442ZM27.3061 17.0112C28.6258 17.0112 29.8916 17.4495 30.8248 18.2296C31.7581 19.0097 32.2823 20.0678 32.2823 21.171C32.2823 22.2743 31.7581 23.3323 30.8248 24.1125C29.8916 24.8926 28.6258 25.3308 27.3061 25.3308C25.9863 25.3308 24.7205 24.8926 23.7873 24.1125C22.8541 23.3323 22.3298 22.2743 22.3298 21.171C22.3298 20.0678 22.8541 19.0097 23.7873 18.2296C24.7205 17.4495 25.9863 17.0112 27.3061 17.0112ZM27.3061 19.7844C26.8661 19.7844 26.4442 19.9305 26.1331 20.1906C25.8221 20.4506 25.6473 20.8033 25.6473 21.171C25.6473 21.5388 25.8221 21.8915 26.1331 22.1515C26.4442 22.4115 26.8661 22.5576 27.3061 22.5576C27.746 22.5576 28.1679 22.4115 28.479 22.1515C28.7901 21.8915 28.9648 21.5388 28.9648 21.171C28.9648 20.8033 28.7901 20.4506 28.479 20.1906C28.1679 19.9305 27.746 19.7844 27.3061 19.7844Z" fill="white"/>
<defs>
<linearGradient id="paint0_linear_1046_7208" x1="-3.27589" y1="29.8386" x2="73.109" y2="28.6724" gradientUnits="userSpaceOnUse">
<stop stop-color="#FF6F00"/>
<stop offset="1" stop-color="#F0B000"/>
</linearGradient>
</defs>
</svg>
