<svg width="59" height="60" viewBox="0 0 59 60" fill="none" xmlns="http://www.w3.org/2000/svg">
<rect x="0.222656" y="0.988281" width="58.309" height="58.309" rx="13.9942" fill="url(#paint0_linear_1046_7206)"/>
<path d="M29.3525 19.019C37.8321 19.0191 44.7598 23.8495 46.2686 30.0728C44.7616 36.2961 37.8324 41.1274 29.3525 41.1274C20.8725 41.1274 13.9434 36.2963 12.4365 30.0728C13.9436 23.8494 20.8727 19.019 29.3525 19.019ZM29.3535 20.5269C25.9677 20.5269 22.6708 21.4428 20.0029 23.1382C17.3345 24.834 15.439 27.2203 14.6621 29.9243L14.6191 30.0728L14.6621 30.2212C15.4369 32.9267 17.3315 35.3148 20 37.0122C22.6679 38.7092 25.9654 39.6259 29.3525 39.6265C32.74 39.6261 36.0378 38.7093 38.7061 37.0122C41.3748 35.3147 43.2701 32.9269 44.0449 30.2212L44.0869 30.0728L44.0439 29.9243C43.267 27.2203 41.3716 24.834 38.7031 23.1382C36.0354 21.4429 32.7392 20.5269 29.3535 20.5269ZM29.3525 24.8149C31.1715 24.815 32.898 25.3922 34.1553 26.395C35.4095 27.3954 36.081 28.7226 36.0811 30.0728C36.0811 31.4229 35.4094 32.7501 34.1553 33.7505C32.898 34.7533 31.1716 35.3315 29.3525 35.3315C27.5334 35.3315 25.8062 34.7534 24.5488 33.7505C23.2949 32.7501 22.623 31.4228 22.623 30.0728C22.6231 28.7227 23.2948 27.3953 24.5488 26.395C25.8062 25.3921 27.5334 24.8149 29.3525 24.8149ZM29.3525 26.3149C28.1736 26.3149 27.0246 26.6875 26.1621 27.3755C25.2965 28.0659 24.7774 29.0319 24.7773 30.0728C24.7773 31.1136 25.2966 32.0796 26.1621 32.77C27.0246 33.458 28.1736 33.8306 29.3525 33.8306C30.5313 33.8305 31.6795 33.4579 32.542 32.77C33.4077 32.0796 33.9277 31.1137 33.9277 30.0728C33.9277 29.0319 33.4076 28.0659 32.542 27.3755C31.6795 26.6877 30.5312 26.315 29.3525 26.3149Z" fill="white" stroke="white" stroke-width="1.07566"/>
<defs>
<linearGradient id="paint0_linear_1046_7206" x1="-14.3546" y1="34.2244" x2="82.4384" y2="37.1399" gradientUnits="userSpaceOnUse">
<stop stop-color="#9F2BE6"/>
<stop offset="1" stop-color="#FF5DBD"/>
</linearGradient>
</defs>
</svg>
