<svg width="154" height="154" viewBox="0 0 154 154" fill="none" xmlns="http://www.w3.org/2000/svg">
<rect width="154" height="154" fill="white"/>
<g clip-path="url(#clip0_787_7145)">
<mask id="mask0_787_7145" style="mask-type:luminance" maskUnits="userSpaceOnUse" x="1" y="53" width="153" height="48">
<path d="M154 53H1V101H154V53Z" fill="white"/>
</mask>
<g mask="url(#mask0_787_7145)">
<mask id="mask1_787_7145" style="mask-type:luminance" maskUnits="userSpaceOnUse" x="1" y="53" width="153" height="48">
<path d="M154 53H1V101H154V53Z" fill="white"/>
</mask>
<g mask="url(#mask1_787_7145)">
<path d="M41.2961 92.3774V92.7092H40.1974V96.4574H39.8993V92.7092H38.8125V92.3774H41.2961Z" fill="#134780"/>
<path d="M46.3097 92.3774V92.7092H44.4401V94.1834H46.1904V94.5143H44.4401V96.1257H46.3314V96.4574H44.1406V92.3783L46.3097 92.3774Z" fill="#134780"/>
<path d="M51.4637 93.1898C51.4061 93.069 51.3316 92.9631 51.2441 92.8778C51.0667 92.708 50.8517 92.6178 50.6315 92.6207C50.4454 92.6146 50.261 92.6673 50.094 92.7741C49.9489 92.8718 49.8233 93.0117 49.7266 93.183C49.63 93.3566 49.5583 93.5514 49.515 93.7581C49.424 94.1875 49.424 94.6409 49.515 95.0704C49.5581 95.2777 49.6298 95.4732 49.7266 95.6472C49.8237 95.8177 49.9493 95.9572 50.094 96.0552C50.2605 96.1643 50.4451 96.2179 50.6315 96.2112C50.7676 96.2138 50.9025 96.1785 51.0271 96.1075C51.1413 96.0423 51.2439 95.9472 51.3285 95.8281C51.4172 95.7077 51.4877 95.5667 51.5363 95.4124C51.5901 95.2487 51.6241 95.0753 51.6371 94.8981H51.9359C51.9189 95.1327 51.8731 95.3622 51.8001 95.5778C51.7351 95.7701 51.6427 95.9446 51.5277 96.0921C51.4142 96.2352 51.2796 96.3468 51.132 96.4204C50.971 96.4978 50.8005 96.5364 50.6288 96.5344C50.4054 96.5414 50.1835 96.4828 49.9799 96.363C49.802 96.2536 49.6445 96.0954 49.5183 95.8992C49.3927 95.7003 49.2989 95.4711 49.242 95.2247C49.1173 94.6992 49.1173 94.137 49.242 93.6115C49.2992 93.3649 49.3931 93.1351 49.5183 92.9352C49.6436 92.7364 49.8012 92.576 49.9799 92.4655C50.1833 92.345 50.4053 92.2864 50.6288 92.2941C50.7773 92.2932 50.925 92.3221 51.0667 92.3798C51.2061 92.4355 51.3369 92.5225 51.4532 92.637C51.5691 92.749 51.6674 92.889 51.7427 93.0492C51.8235 93.2213 51.8742 93.4145 51.8911 93.615H51.5923C51.567 93.4665 51.5224 93.3248 51.4605 93.1958L51.4637 93.1898Z" fill="#134780"/>
<path d="M55.246 92.3774V94.1483H57.1098V92.3774H57.4085V96.4566H57.1098V94.48H55.246V96.4566H54.9453V92.3774H55.246Z" fill="#134780"/>
<path d="M60.9222 92.3774L62.753 95.8283H62.7602V92.3774H63.0609V96.4566H62.7246L60.8952 93.0057H60.8866V96.4566H60.5859V92.3774H60.9202H60.9222Z" fill="#134780"/>
<path d="M66.1622 93.6089C66.2217 93.3631 66.3155 93.1338 66.4392 92.9326C66.564 92.733 66.7219 92.5724 66.9009 92.4629C67.1054 92.3485 67.3258 92.2896 67.5485 92.2896C67.7712 92.2896 67.9915 92.3485 68.1961 92.4629C68.3753 92.5723 68.533 92.7328 68.6577 92.9326C68.7832 93.1326 68.8777 93.3622 68.9361 93.6089C69.0592 94.1347 69.0592 94.6962 68.9361 95.222C68.8779 95.4682 68.7834 95.6974 68.6577 95.8966C68.532 96.0934 68.3743 96.2518 68.1961 96.3603C67.9936 96.48 67.7729 96.5386 67.5505 96.5317C67.327 96.5386 67.1052 96.48 66.9015 96.3603C66.7233 96.2517 66.5657 96.0933 66.4399 95.8966C66.3159 95.6962 66.222 95.4674 66.1629 95.222C66.0399 94.6962 66.0392 94.1347 66.1622 93.6089ZM66.4372 95.0704C66.4804 95.2777 66.5521 95.4731 66.649 95.6471C66.7459 95.8177 66.8716 95.9572 67.0163 96.0551C67.184 96.1578 67.3671 96.211 67.5525 96.211C67.7378 96.211 67.9209 96.1578 68.0886 96.0551C68.2318 95.9564 68.356 95.8169 68.452 95.6471C68.5493 95.4737 68.6206 95.2781 68.6624 95.0704C68.7545 94.6412 68.7545 94.1872 68.6624 93.758C68.6204 93.5509 68.549 93.3559 68.452 93.1829C68.3567 93.0121 68.2323 92.8721 68.0886 92.774C67.9226 92.6672 67.739 92.6146 67.5538 92.6207C67.3677 92.6148 67.1833 92.6673 67.0163 92.774C66.8713 92.8716 66.7455 93.0116 66.649 93.1829C66.5523 93.3565 66.4806 93.5513 66.4372 93.758C66.3464 94.1875 66.3464 94.6409 66.4372 95.0704Z" fill="#134780"/>
<path d="M72.3496 92.3774V96.1257H74.1038V96.4574H72.0469V92.3783L72.3496 92.3774Z" fill="#134780"/>
<path d="M76.8891 93.6091C76.9467 93.3623 77.0408 93.1326 77.1661 92.9328C77.2911 92.7333 77.4488 92.5728 77.6278 92.4631C77.8323 92.3429 78.0552 92.2843 78.279 92.2916C78.5012 92.2846 78.7218 92.3432 78.9233 92.4631C79.1024 92.5726 79.2608 92.7332 79.3853 92.9328C79.5107 93.1326 79.6045 93.3624 79.6621 93.6091C79.7851 94.1349 79.7851 94.6964 79.6621 95.2222C79.6052 95.4685 79.5107 95.6978 79.3853 95.8968C79.2592 96.0934 79.1016 96.2517 78.9233 96.3605C78.7218 96.4797 78.5012 96.5383 78.279 96.5319C78.0552 96.5386 77.8324 96.48 77.6278 96.3605C77.4495 96.2518 77.2919 96.0935 77.1661 95.8968C77.0405 95.6978 76.9464 95.4685 76.8891 95.2222C76.7661 94.6964 76.7661 94.1349 76.8891 93.6091ZM77.1641 95.0705C77.2071 95.2778 77.2786 95.4732 77.3752 95.6473C77.4717 95.8184 77.5974 95.9581 77.7425 96.0553C77.9084 96.1649 78.0929 96.2185 78.279 96.2113C78.4643 96.2183 78.6473 96.1646 78.8126 96.0553C78.9563 95.9571 79.0809 95.8176 79.177 95.6473C79.2739 95.4732 79.3454 95.2778 79.3877 95.0705C79.433 94.8572 79.4553 94.6368 79.4538 94.4156C79.4553 94.1936 79.433 93.9723 79.3877 93.7582C79.3446 93.5516 79.2731 93.3567 79.177 93.1831C79.0816 93.0119 78.9563 92.8719 78.8126 92.7742C78.6473 92.667 78.4643 92.6143 78.279 92.6208C78.0937 92.6143 77.9092 92.6669 77.7425 92.7742C77.597 92.8711 77.4712 93.0111 77.3752 93.1831C77.2788 93.3567 77.2073 93.5516 77.1641 93.7582C77.0697 94.187 77.0697 94.6417 77.1641 95.0705Z" fill="#134780"/>
<path d="M85.2429 96.4564L85.2014 95.7141H85.1937C85.1437 95.8515 85.0768 95.9779 84.9961 96.0887C84.9208 96.1914 84.8339 96.2782 84.7386 96.3458C84.644 96.4146 84.5425 96.4643 84.4372 96.4932C84.3288 96.5234 84.218 96.5386 84.1073 96.5387C83.8836 96.545 83.6622 96.4865 83.4584 96.3672C83.2793 96.2595 83.1217 96.1011 82.9964 95.9035C82.8703 95.7049 82.7749 95.4756 82.7173 95.229C82.5942 94.7031 82.5942 94.1416 82.7173 93.6158C82.7749 93.3688 82.8703 93.139 82.9964 92.9395C83.1209 92.7393 83.2785 92.5787 83.4584 92.4698C83.6622 92.3499 83.8836 92.2913 84.1073 92.2984C84.2634 92.2967 84.4187 92.3256 84.5686 92.3841C84.7109 92.436 84.8439 92.5233 84.96 92.6412C85.0761 92.7581 85.1745 92.9016 85.2514 93.0647C85.3352 93.2449 85.3905 93.4447 85.4144 93.6527H85.1145C85.1022 93.5281 85.0722 93.4077 85.0253 93.2978C84.9723 93.1729 84.9015 93.0617 84.8177 92.9695C84.7255 92.8653 84.6209 92.7823 84.5071 92.7244C84.378 92.6602 84.2411 92.6285 84.1035 92.631C83.9174 92.6251 83.7329 92.6778 83.5661 92.7844C83.4215 92.8821 83.2954 93.022 83.1993 93.1932C83.1025 93.3663 83.0317 93.5614 82.9902 93.7684C82.8964 94.1973 82.8964 94.6517 82.9902 95.0807C83.031 95.2883 83.1025 95.4839 83.1993 95.6575C83.2962 95.828 83.4215 95.9675 83.5661 96.0655C83.7329 96.1744 83.9174 96.228 84.1035 96.2215C84.2611 96.2246 84.4187 96.1858 84.5648 96.1075C84.6963 96.04 84.8147 95.9341 84.9108 95.7981C85.0061 95.661 85.0792 95.4996 85.1237 95.3241C85.1699 95.1299 85.1922 94.9274 85.1899 94.7241H84.1204V94.3924H85.4528V96.4667H85.2391L85.2429 96.4564Z" fill="#134780"/>
<path d="M88.2188 92.3774H88.5716L89.605 94.4457L90.6352 92.3774H90.9904L89.7503 94.7774V96.4574H89.452V94.7774L88.2188 92.3774Z" fill="#134780"/>
<path d="M97.8111 95.6394C97.8611 95.7741 97.9364 95.8902 98.0294 95.9771C98.1294 96.0646 98.2416 96.1255 98.3593 96.1563C98.4923 96.1928 98.6276 96.2111 98.7629 96.2111C98.8536 96.2093 98.9436 96.1935 99.0305 96.164C99.1274 96.1355 99.2196 96.0862 99.3034 96.0183C99.3849 95.9517 99.4556 95.8642 99.5102 95.7611C99.5687 95.6496 99.5987 95.5166 99.5956 95.3814C99.5979 95.2765 99.5764 95.1728 99.5348 95.0831C99.4949 94.999 99.4426 94.9264 99.3811 94.8697C99.3165 94.8118 99.2458 94.7651 99.1719 94.7309C99.0966 94.6966 99.0213 94.6666 98.9482 94.6451L98.2478 94.424C98.1586 94.3924 98.0702 94.3541 97.9841 94.3091C97.9011 94.2653 97.8249 94.2032 97.758 94.1257C97.6919 94.0477 97.6389 93.9525 97.602 93.8463C97.5605 93.7173 97.5405 93.5782 97.5435 93.4383C97.5451 93.3202 97.5597 93.2029 97.5874 93.0903C97.6189 92.9502 97.6742 92.8212 97.7504 92.7131C97.8434 92.5846 97.9549 92.4822 98.0794 92.4123C98.2516 92.3238 98.4354 92.2823 98.6199 92.2906C98.7706 92.2889 98.9205 92.3161 99.0651 92.3711C99.1989 92.4193 99.3242 92.5008 99.4341 92.6111C99.5395 92.719 99.6256 92.8545 99.6871 93.0089C99.7524 93.1792 99.7847 93.3679 99.7816 93.5583H99.4803C99.4779 93.4164 99.451 93.277 99.4018 93.1503C99.3549 93.0363 99.2896 92.9367 99.2104 92.858C99.1304 92.7775 99.0397 92.7175 98.9421 92.6814C98.839 92.6403 98.7322 92.62 98.6238 92.6214C98.5238 92.6212 98.4246 92.6356 98.327 92.6643C98.2378 92.6889 98.1532 92.7358 98.0771 92.8023C98.0048 92.8659 97.9449 92.9507 97.9018 93.05C97.8549 93.1687 97.8326 93.3008 97.8357 93.434C97.8349 93.519 97.848 93.6031 97.8749 93.6809C97.898 93.7504 97.9333 93.8124 97.9772 93.8626C98.0225 93.9113 98.0733 93.9511 98.1279 93.9809C98.1878 94.0133 98.2493 94.0383 98.3124 94.0554L99.0766 94.3014C99.1842 94.3371 99.2904 94.3841 99.3918 94.442C99.4856 94.4935 99.5725 94.5628 99.6502 94.6477C99.7255 94.7298 99.7863 94.8321 99.8278 94.9477C99.8731 95.0828 99.8954 95.229 99.8939 95.3763C99.8939 95.42 99.8893 95.4809 99.8839 95.558C99.8731 95.6413 99.8547 95.7229 99.8309 95.8014C99.7986 95.8929 99.7586 95.9793 99.7117 96.0586C99.6532 96.1543 99.5817 96.2351 99.5002 96.2969C99.3964 96.3754 99.2842 96.4332 99.1666 96.4683C99.0113 96.5161 98.8521 96.5386 98.693 96.5351C98.5192 96.5353 98.3462 96.5065 98.1778 96.4494C98.0318 96.4 97.8941 96.3125 97.7742 96.1923C97.6619 96.0762 97.5728 95.9254 97.5166 95.7534C97.4536 95.5477 97.4282 95.3261 97.4405 95.1054H97.7373C97.7304 95.2867 97.7565 95.4676 97.8134 95.6334L97.8111 95.6394Z" fill="#134780"/>
<path d="M102.834 93.6088C102.894 93.3622 102.988 93.1327 103.114 92.9325C103.238 92.7319 103.396 92.5712 103.576 92.4628C103.779 92.3484 104 92.2896 104.222 92.2896C104.444 92.2896 104.664 92.3484 104.869 92.4628C105.047 92.573 105.205 92.7334 105.33 92.9325C105.455 93.1329 105.549 93.3624 105.608 93.6088C105.731 94.1346 105.731 94.6962 105.608 95.222C105.549 95.468 105.455 95.6969 105.33 95.8965C105.204 96.0925 105.046 96.2507 104.869 96.3602C104.665 96.4759 104.444 96.5358 104.222 96.5358C103.999 96.5358 103.779 96.4759 103.576 96.3602C103.396 96.2529 103.239 96.0943 103.114 95.8965C102.988 95.6971 102.893 95.4682 102.834 95.222C102.711 94.6962 102.711 94.1346 102.834 93.6088ZM103.111 95.0703C103.153 95.2779 103.223 95.4734 103.32 95.647C103.417 95.8175 103.543 95.9571 103.688 96.055C103.854 96.1635 104.038 96.2171 104.225 96.2111C104.41 96.2175 104.594 96.1638 104.759 96.055C104.903 95.9571 105.028 95.8175 105.124 95.647C105.221 95.473 105.292 95.2776 105.336 95.0703C105.426 94.6408 105.426 94.1874 105.336 93.7579C105.292 93.5512 105.22 93.3564 105.124 93.1828C105.029 93.0113 104.903 92.8713 104.759 92.7739C104.594 92.667 104.41 92.6145 104.225 92.6206C104.038 92.6151 103.855 92.6676 103.688 92.7739C103.543 92.8716 103.416 93.0115 103.32 93.1828C103.223 93.3558 103.153 93.5509 103.111 93.7579C103.021 94.1874 103.021 94.6408 103.111 95.0703Z" fill="#134780"/>
<path d="M109.018 92.3774V96.1257H110.775V96.4574H108.719V92.3783L109.018 92.3774Z" fill="#134780"/>
<path d="M113.905 92.3774V94.9026C113.902 95.1054 113.922 95.3075 113.965 95.5026C114.001 95.6541 114.064 95.7927 114.148 95.9072C114.228 96.0132 114.327 96.0923 114.437 96.1377C114.562 96.1874 114.693 96.2114 114.824 96.2089C114.958 96.2119 115.091 96.1879 115.219 96.1377C115.329 96.0925 115.428 96.0134 115.509 95.9072C115.593 95.7933 115.655 95.6544 115.689 95.5026C115.733 95.3079 115.754 95.1055 115.751 94.9026V92.3774H116.049V94.9892C116.051 95.191 116.029 95.392 115.984 95.5849C115.941 95.7685 115.866 95.9375 115.767 96.0795C115.662 96.2269 115.533 96.3415 115.39 96.4146C115.21 96.5021 115.02 96.544 114.829 96.538C114.639 96.5436 114.45 96.5017 114.274 96.4146C114.133 96.3445 114.006 96.2333 113.903 96.0897C113.8 95.946 113.724 95.7736 113.68 95.5857C113.633 95.3932 113.609 95.1921 113.609 94.99V92.3783H113.909L113.905 92.3774Z" fill="#134780"/>
<path d="M121.342 92.3774V92.7092H120.25V96.4574H119.947V92.7092H118.859V92.3774H121.342Z" fill="#134780"/>
<path d="M124.516 92.3774V96.4566H124.219V92.3774H124.516Z" fill="#134780"/>
<path d="M127.647 93.6091C127.705 93.3628 127.8 93.1333 127.925 92.9328C128.05 92.7341 128.207 92.5737 128.386 92.4631C128.59 92.3429 128.813 92.2843 129.038 92.2916C129.259 92.2843 129.48 92.343 129.682 92.4631C129.86 92.5726 130.019 92.7332 130.143 92.9328C130.269 93.1326 130.363 93.3624 130.42 93.6091C130.546 94.1343 130.546 94.697 130.42 95.2222C130.363 95.4685 130.269 95.6978 130.143 95.8968C130.017 96.0934 129.86 96.2517 129.682 96.3605C129.48 96.48 129.259 96.5386 129.038 96.5319C128.813 96.5386 128.59 96.48 128.386 96.3605C128.208 96.251 128.051 96.0928 127.925 95.8968C127.799 95.6971 127.705 95.4681 127.647 95.2222C127.524 94.6964 127.524 94.1349 127.647 93.6091ZM127.922 95.0705C127.965 95.2778 128.037 95.4733 128.134 95.6473C128.23 95.8184 128.356 95.9581 128.5 96.0553C128.738 96.2223 129.014 96.2729 129.278 96.198C129.541 96.1232 129.775 95.9277 129.937 95.6473C130.033 95.4724 130.103 95.2772 130.146 95.0705C130.192 94.8572 130.214 94.6368 130.213 94.4156C130.214 94.1936 130.192 93.9723 130.146 93.7582C130.103 93.5521 130.033 93.3575 129.937 93.1831C129.841 93.0132 129.717 92.8735 129.573 92.7742C129.405 92.6729 129.222 92.6204 129.037 92.6204C128.852 92.6204 128.669 92.6729 128.5 92.7742C128.355 92.8711 128.229 93.0111 128.134 93.1831C128.037 93.3567 127.965 93.5515 127.922 93.7582C127.831 94.1877 127.831 94.641 127.922 95.0705Z" fill="#134780"/>
<path d="M133.862 92.3774L135.692 95.8283H135.7V92.3774H135.999V96.4566H135.669L133.838 93.0057H133.83V96.4566H133.531V92.3774H133.862Z" fill="#134780"/>
<path d="M139.391 95.6394C139.441 95.7749 139.516 95.8914 139.611 95.9771C139.709 96.0643 139.82 96.1252 139.936 96.1563C140.069 96.1926 140.204 96.211 140.339 96.2111C140.43 96.2093 140.52 96.1934 140.608 96.164C140.704 96.136 140.796 96.0867 140.88 96.0183C140.963 95.9525 141.034 95.8649 141.089 95.7611C141.146 95.6485 141.174 95.516 141.171 95.3814C141.174 95.2763 141.152 95.1726 141.11 95.0831C141.071 94.9998 141.02 94.9273 140.959 94.8697C140.893 94.8123 140.822 94.7656 140.748 94.7309C140.675 94.6966 140.599 94.6666 140.526 94.6451L139.826 94.424C139.736 94.3934 139.648 94.3551 139.562 94.3091C139.478 94.266 139.401 94.2039 139.333 94.1257C139.268 94.0469 139.215 93.9519 139.178 93.8463C139.136 93.7173 139.116 93.5782 139.119 93.4383C139.12 93.3201 139.135 93.2029 139.162 93.0903C139.195 92.9507 139.251 92.822 139.325 92.7131C139.42 92.5835 139.534 92.481 139.661 92.4123C139.832 92.3238 140.015 92.2824 140.199 92.2906C140.349 92.2885 140.499 92.3156 140.643 92.3711C140.778 92.4199 140.904 92.5013 141.015 92.6111C141.119 92.7189 141.204 92.8546 141.265 93.0089C141.33 93.1791 141.364 93.3678 141.36 93.5583H141.061C141.059 93.4226 141.034 93.2891 140.988 93.1678C140.941 93.0465 140.874 92.9406 140.791 92.858C140.711 92.7781 140.62 92.7182 140.524 92.6814C140.419 92.6404 140.311 92.6202 140.203 92.6214C140.103 92.6211 140.003 92.6355 139.906 92.6643C139.817 92.6888 139.733 92.7357 139.657 92.8023C139.584 92.8651 139.524 92.9501 139.482 93.05C139.436 93.1687 139.413 93.3008 139.416 93.434C139.416 93.519 139.429 93.6031 139.455 93.6809C139.48 93.7505 139.515 93.8126 139.56 93.8626C139.604 93.912 139.654 93.9519 139.708 93.9809C139.767 94.0129 139.83 94.0379 139.893 94.0554L140.656 94.3014C140.765 94.3367 140.87 94.3838 140.972 94.442C141.066 94.4936 141.154 94.5629 141.232 94.6477C141.307 94.7299 141.367 94.8323 141.407 94.9477C141.454 95.0823 141.477 95.2288 141.473 95.3763C141.472 95.4371 141.467 95.4978 141.461 95.558C141.451 95.6418 141.433 95.7236 141.407 95.8014C141.377 95.8935 141.337 95.9799 141.289 96.0586C141.23 96.1543 141.158 96.2351 141.077 96.2969C140.974 96.3753 140.863 96.4331 140.747 96.4683C140.591 96.5162 140.431 96.5387 140.27 96.5351C140.097 96.5355 139.925 96.5067 139.758 96.4494C139.611 96.4 139.473 96.3126 139.351 96.1923C139.241 96.0752 139.153 95.9245 139.096 95.7534C139.033 95.548 139.006 95.3263 139.019 95.1054H139.318C139.311 95.2867 139.337 95.4676 139.393 95.6334L139.391 95.6394Z" fill="#134780"/>
<path d="M55.064 62.6148V86.0833L40.5909 67.6873V85.9128H38.8281V62.1699L53.3025 80.8711V62.6139L55.064 62.6148Z" fill="#134780"/>
<path d="M76.9784 65.7734C77.8495 66.8654 78.5378 68.1796 78.9991 69.6335C79.4612 71.0874 79.6872 72.6497 79.6626 74.2223C79.6657 76.1905 79.2943 78.1292 78.5824 79.8663C77.8707 81.6034 76.8399 83.0852 75.5815 84.1802C74.3232 85.2752 72.8763 85.9494 71.3694 86.1432C69.8624 86.3369 68.3419 86.044 66.943 85.2906C65.544 84.5372 64.3098 83.3465 63.3499 81.8243C62.3899 80.3021 61.734 78.4954 61.4403 76.5646C61.1466 74.6338 61.2242 72.6386 61.6662 70.7561C62.1082 68.8736 62.9009 67.1621 63.9741 65.7734C64.8272 64.662 65.8407 63.7801 66.9564 63.1785C68.0722 62.5768 69.2683 62.2671 70.4762 62.2671C71.6842 62.2671 72.8803 62.5768 73.9961 63.1785C75.1118 63.7801 76.1253 64.662 76.9784 65.7734ZM75.7386 81.0786C77.132 79.2573 77.9142 76.7933 77.9142 74.2249C77.9142 71.6564 77.132 69.1924 75.7386 67.3712C74.6964 66.0157 73.3682 65.0924 71.9222 64.7183C70.4761 64.3442 68.9772 64.536 67.615 65.2695C66.2529 66.003 65.0888 67.2451 64.27 68.8388C63.4511 70.4324 63.0145 72.306 63.0152 74.2223C63.0173 76.1369 63.4556 78.0079 64.2746 79.5993C65.0938 81.1907 66.257 82.4313 67.6178 83.1647C68.9786 83.898 70.4759 84.0914 71.9211 83.7203C73.3663 83.3492 74.6946 82.4294 75.7386 81.0786Z" fill="#134780"/>
<path d="M82.7031 62.6147H84.6714L92.2683 81.3142L99.9345 62.6147H101.855L93.3847 83.5668V83.5839L92.2683 86.3096L91.2235 83.7185L82.7031 62.6147Z" fill="#134780"/>
<path d="M120.668 85.9394H118.698L111.105 67.2417L103.437 85.9394H101.516L109.987 64.984V64.9669L111.108 62.2515L112.154 64.8426L120.671 85.9386L120.668 85.9394Z" fill="#134780"/>
<path d="M139.728 79.3129C139.054 80.7542 138.108 81.9463 136.979 82.7749C135.849 83.6035 134.574 84.0406 133.277 84.0443C132.285 84.0516 131.301 83.803 130.383 83.3128C129.465 82.8227 128.631 82.1009 127.929 81.189C127.227 80.2771 126.671 79.1934 126.294 78.0005C125.916 76.8076 125.725 75.5293 125.73 74.2394C125.731 72.4193 126.122 70.6355 126.858 69.0877C127.596 67.5399 128.649 66.2894 129.902 65.4761C131.155 64.6628 132.557 64.319 133.952 64.4831C135.346 64.6472 136.679 65.3127 137.799 66.4052C138.569 67.1625 139.219 68.1057 139.714 69.1832H141.601C140.714 66.724 139.207 64.7312 137.331 63.533C135.455 62.335 133.322 62.003 131.281 62.5919C129.241 63.1807 127.416 64.6552 126.106 66.7726C124.797 68.8899 124.082 71.5238 124.078 74.2403C124.077 76.4723 124.558 78.6599 125.464 80.5553C126.372 82.4506 127.669 83.978 129.209 84.9643C130.749 85.9505 132.472 86.3563 134.181 86.1355C135.889 85.9147 137.517 85.0763 138.878 83.7152C140.045 82.5569 140.977 81.0461 141.594 79.3137L139.728 79.3129Z" fill="#134780"/>
<path d="M146.946 57.4624C147.54 57.4622 148.12 57.6908 148.614 58.1192C149.107 58.5475 149.492 59.1565 149.719 59.8691C149.946 60.5817 150.006 61.3658 149.891 62.1225C149.775 62.8791 149.489 63.5743 149.07 64.1201C148.651 64.6658 148.116 65.0377 147.534 65.1887C146.952 65.3396 146.349 65.2629 145.801 64.9682C145.252 64.6735 144.783 64.1741 144.453 63.533C144.122 62.892 143.946 62.1381 143.945 61.3667C143.945 60.3318 144.261 59.3391 144.824 58.607C145.386 57.8748 146.15 57.4631 146.946 57.4624ZM146.946 64.6624C147.448 64.6627 147.939 64.4696 148.357 64.1073C148.774 63.7451 149.1 63.23 149.293 62.6272C149.485 62.0245 149.536 61.3611 149.438 60.7209C149.34 60.0808 149.099 59.4926 148.744 59.0308C148.389 58.5689 147.937 58.2542 147.445 58.1264C146.952 57.9985 146.442 58.0633 145.978 58.3125C145.514 58.5616 145.117 58.9841 144.838 59.5263C144.558 60.0686 144.409 60.7064 144.408 61.359C144.408 61.7927 144.474 62.2222 144.601 62.623C144.729 63.0238 144.916 63.3881 145.152 63.695C145.387 64.0019 145.667 64.2454 145.975 64.4117C146.283 64.578 146.614 64.6638 146.948 64.6641L146.946 64.6624Z" fill="#16477F"/>
<path d="M147.711 61.9023L148.099 63.1623H148.055C147.93 63.1623 147.805 63.1623 147.68 63.1623C147.667 63.1647 147.654 63.161 147.643 63.1518C147.633 63.1426 147.626 63.1286 147.623 63.1126C147.51 62.7415 147.395 62.372 147.281 61.9983C147.274 61.9743 147.267 61.958 147.243 61.958C146.997 61.958 146.752 61.958 146.506 61.958H146.486V63.1503H146.023V59.5503H146.063C146.507 59.5503 146.951 59.5503 147.394 59.5503C147.576 59.5489 147.753 59.6166 147.906 59.7452C148.059 59.8737 148.179 60.0575 148.251 60.2737C148.324 60.4899 148.346 60.7291 148.315 60.9617C148.285 61.1943 148.202 61.4102 148.079 61.5826C147.988 61.7075 147.877 61.8044 147.754 61.8663L147.711 61.8886V61.9023ZM146.486 61.3606H146.501C146.811 61.3606 147.121 61.3606 147.43 61.3606C147.542 61.3444 147.646 61.2753 147.722 61.1664C147.797 61.0574 147.839 60.9162 147.84 60.7695C147.842 60.6227 147.801 60.4806 147.726 60.3699C147.653 60.2593 147.55 60.1879 147.437 60.1692C147.131 60.1606 146.824 60.1692 146.515 60.1692C146.506 60.1692 146.496 60.1692 146.484 60.1692V61.3606H146.486Z" fill="#16477F"/>
</g>
<path fill-rule="evenodd" clip-rule="evenodd" d="M4.4375 99.5932L13.934 53.8569L23.4306 99.5932H4.4375Z" fill="url(#paint0_linear_787_7145)"/>
<path fill-rule="evenodd" clip-rule="evenodd" d="M32.9306 53.8569L23.434 99.5932L13.9375 53.8569H32.9306Z" fill="url(#paint1_linear_787_7145)"/>
</g>
</g>
<defs>
<linearGradient id="paint0_linear_787_7145" x1="20.0688" y1="81.253" x2="14.4796" y2="81.5983" gradientUnits="userSpaceOnUse">
<stop stop-color="#002F36"/>
<stop offset="1" stop-color="#1B9A8F"/>
</linearGradient>
<linearGradient id="paint1_linear_787_7145" x1="23.434" y1="53.8569" x2="23.434" y2="99.5932" gradientUnits="userSpaceOnUse">
<stop stop-color="#F48120"/>
<stop offset="1" stop-color="#FFD300"/>
</linearGradient>
<clipPath id="clip0_787_7145">
<rect width="153" height="48" fill="white" transform="translate(1 53)"/>
</clipPath>
</defs>
</svg>
